<svg width="306" height="306" viewBox="0 0 306 306" fill="none" xmlns="http://www.w3.org/2000/svg">
<path d="M153.853 47.5728L247.862 100.671V206.867L153.853 259.965L59.8438 206.867V100.671L153.853 47.5728Z" fill="#38393A"/>
<path d="M153.931 47.5728L215.037 153.769H92.8252L153.931 47.5728Z" fill="#B5B5B5"/>
<path d="M153.921 47.5728L248 100.671L215.036 153.769L153.921 47.5728Z" fill="#8F8F8F"/>
<path d="M153.896 47.5728L92.8167 153.769L59.8528 100.671L153.896 47.5728Z" fill="#CDCDCD"/>
<path d="M214.881 153.789L247.845 206.887L153.921 259.985L214.881 153.789Z" fill="#5C5C5C"/>
<path d="M59.8492 206.884L92.813 153.786L153.928 259.982L59.8492 206.884Z" fill="#B0B0B0"/>
<path d="M153.924 259.977L92.8177 153.781H215.03L153.924 259.977Z" fill="#9B9B9B"/>
<path d="M92.8201 153.798L59.8563 206.896L59.8563 100.7L92.8201 153.798Z" fill="#E0E0E0"/>
</svg>
