<svg width="1440" height="140" viewBox="0 0 1440 140" fill="none" xmlns="http://www.w3.org/2000/svg">
<path d="M0 20H1449" stroke="black" stroke-opacity="0.05" stroke-width="0.729262"/>
<path d="M0 47H1449" stroke="black" stroke-opacity="0.05" stroke-width="0.729262"/>
<path d="M0 73H1449" stroke="black" stroke-opacity="0.05" stroke-width="0.729262"/>
<path d="M28.0547 -22.1315L28.0547 131.743" stroke="black" stroke-opacity="0.05" stroke-width="0.729262"/>
<path d="M57.0547 -22.1315L57.0547 131.743" stroke="black" stroke-opacity="0.05" stroke-width="0.729262"/>
<path d="M86.0547 -22.1315L86.0547 131.743" stroke="black" stroke-opacity="0.05" stroke-width="0.729262"/>
<path d="M115.055 -22.1315L115.055 131.743" stroke="black" stroke-opacity="0.05" stroke-width="0.729262"/>
<path d="M144.055 -22.1315L144.055 131.743" stroke="black" stroke-opacity="0.05" stroke-width="0.729262"/>
<path d="M173.055 -22.1315L173.055 131.743" stroke="black" stroke-opacity="0.05" stroke-width="0.729262"/>
<path d="M202.055 -22.1315L202.055 131.743" stroke="black" stroke-opacity="0.05" stroke-width="0.729262"/>
<path d="M231.055 -22.1315L231.055 131.743" stroke="black" stroke-opacity="0.05" stroke-width="0.729262"/>
<path d="M260.055 -22.1315L260.055 131.743" stroke="black" stroke-opacity="0.05" stroke-width="0.729262"/>
<path d="M289.055 -22.1315L289.055 131.743" stroke="black" stroke-opacity="0.05" stroke-width="0.729262"/>
<path d="M318.055 -22.1315L318.055 131.743" stroke="black" stroke-opacity="0.05" stroke-width="0.729262"/>
<path d="M347.055 -22.1315L347.055 131.743" stroke="black" stroke-opacity="0.05" stroke-width="0.729262"/>
<path d="M376.055 -22.1315L376.055 131.743" stroke="black" stroke-opacity="0.05" stroke-width="0.729262"/>
<path d="M405.055 -22.1315L405.055 131.743" stroke="black" stroke-opacity="0.05" stroke-width="0.729262"/>
<path d="M434.055 -22.1315L434.055 131.743" stroke="black" stroke-opacity="0.05" stroke-width="0.729262"/>
<path d="M463.055 -22.1315L463.055 131.743" stroke="black" stroke-opacity="0.05" stroke-width="0.729262"/>
<path d="M492.055 -22.1315L492.055 131.743" stroke="black" stroke-opacity="0.05" stroke-width="0.729262"/>
<path d="M521.055 -22.1315L521.055 131.743" stroke="black" stroke-opacity="0.05" stroke-width="0.729262"/>
<path d="M550.055 -22.1315L550.055 131.743" stroke="black" stroke-opacity="0.05" stroke-width="0.729262"/>
<path d="M579.055 -22.1315L579.055 131.743" stroke="black" stroke-opacity="0.05" stroke-width="0.729262"/>
<path d="M608.055 -22.1315L608.055 131.743" stroke="black" stroke-opacity="0.05" stroke-width="0.729262"/>
<path d="M637.055 -22.1315L637.055 131.743" stroke="black" stroke-opacity="0.05" stroke-width="0.729262"/>
<path d="M666.055 -22.1315L666.055 131.743" stroke="black" stroke-opacity="0.05" stroke-width="0.729262"/>
<path d="M695.055 -22.1315L695.055 131.743" stroke="black" stroke-opacity="0.05" stroke-width="0.729262"/>
<path d="M724.055 -22.1315L724.055 131.743" stroke="black" stroke-opacity="0.05" stroke-width="0.729262"/>
<path d="M753.055 -22.1315L753.055 131.743" stroke="black" stroke-opacity="0.05" stroke-width="0.729262"/>
<path d="M782.055 -22.1315L782.055 131.743" stroke="black" stroke-opacity="0.05" stroke-width="0.729262"/>
<path d="M811.055 -22.1315L811.055 131.743" stroke="black" stroke-opacity="0.05" stroke-width="0.729262"/>
<path d="M840.055 -22.1315L840.055 131.743" stroke="black" stroke-opacity="0.05" stroke-width="0.729262"/>
<path d="M869.055 -22.1315L869.055 131.743" stroke="black" stroke-opacity="0.05" stroke-width="0.729262"/>
<path d="M898.055 -22.1315L898.055 131.743" stroke="black" stroke-opacity="0.05" stroke-width="0.729262"/>
<path d="M927.055 -22.1315L927.055 131.743" stroke="black" stroke-opacity="0.05" stroke-width="0.729262"/>
<path d="M956.055 -22.1315L956.055 131.743" stroke="black" stroke-opacity="0.05" stroke-width="0.729262"/>
<path d="M985.055 -22.1315L985.055 131.743" stroke="black" stroke-opacity="0.05" stroke-width="0.729262"/>
<path d="M1014.05 -22.1315L1014.05 131.743" stroke="black" stroke-opacity="0.05" stroke-width="0.729262"/>
<path d="M1043.05 -22.1315L1043.05 131.743" stroke="black" stroke-opacity="0.05" stroke-width="0.729262"/>
<path d="M1072.05 -22.1315L1072.05 131.743" stroke="black" stroke-opacity="0.05" stroke-width="0.729262"/>
<path d="M1101.05 -22.1315L1101.05 131.743" stroke="black" stroke-opacity="0.05" stroke-width="0.729262"/>
<path d="M1130.05 -22.1315L1130.05 131.743" stroke="black" stroke-opacity="0.05" stroke-width="0.729262"/>
<path d="M1159.05 -22.1315L1159.05 131.743" stroke="black" stroke-opacity="0.05" stroke-width="0.729262"/>
<path d="M1188.05 -22.1315L1188.05 131.743" stroke="black" stroke-opacity="0.05" stroke-width="0.729262"/>
<path d="M1217.05 -22.1315L1217.05 131.743" stroke="black" stroke-opacity="0.05" stroke-width="0.729262"/>
<path d="M1246.05 -22.1315L1246.05 131.743" stroke="black" stroke-opacity="0.05" stroke-width="0.729262"/>
<path d="M1275.05 -22.1315L1275.05 131.743" stroke="black" stroke-opacity="0.05" stroke-width="0.729262"/>
<path d="M1304.05 -22.1315L1304.05 131.743" stroke="black" stroke-opacity="0.05" stroke-width="0.729262"/>
<path d="M1333.05 -22.1315L1333.05 131.743" stroke="black" stroke-opacity="0.05" stroke-width="0.729262"/>
<path d="M1362.05 -22.1315L1362.05 131.743" stroke="black" stroke-opacity="0.05" stroke-width="0.729262"/>
<path d="M1391.05 -22.1315L1391.05 131.743" stroke="black" stroke-opacity="0.05" stroke-width="0.729262"/>
<path d="M1420.05 -22.1315L1420.05 131.743" stroke="black" stroke-opacity="0.05" stroke-width="0.729262"/>
<path d="M0 100H1449" stroke="black" stroke-opacity="0.05" stroke-width="0.729262"/>
</svg>
