<svg width="306" height="306" viewBox="0 0 306 306" fill="none" xmlns="http://www.w3.org/2000/svg">
<g clip-path="url(#clip0_10_13837)">
<path d="M115.787 127.149C115.854 127.11 115.937 127.11 116.004 127.149L154.662 149.355C154.808 149.439 154.808 149.65 154.662 149.734L115.99 171.916C115.923 171.954 115.84 171.954 115.773 171.916L77.1151 149.709C76.9689 149.626 76.969 149.415 77.1152 149.331L115.787 127.149Z" fill="url(#paint0_linear_10_13837)"/>
<g filter="url(#filter0_b_10_13837)">
<path fill-rule="evenodd" clip-rule="evenodd" d="M154.636 149.687C154.748 149.623 154.748 149.461 154.636 149.397L115.979 127.191C115.927 127.161 115.864 127.161 115.812 127.191L77.1406 149.373C77.0286 149.437 77.0285 149.599 77.1405 149.663L115.798 171.869C115.85 171.899 115.913 171.899 115.965 171.869L154.636 149.687ZM154.687 149.308C154.868 149.412 154.867 149.672 154.687 149.776L116.016 171.958C115.932 172.005 115.83 172.005 115.747 171.958L77.0896 149.751C76.9093 149.648 76.9093 149.388 77.0898 149.284L115.761 127.102C115.844 127.055 115.947 127.055 116.03 127.102L154.687 149.308Z" fill="white" fill-opacity="0.2"/>
</g>
<path d="M76.7748 149.91C76.7749 149.742 76.9564 149.637 77.1019 149.721L115.761 171.928C115.829 171.967 115.871 172.039 115.871 172.117L115.851 216.506C115.851 216.674 115.67 216.779 115.524 216.696L76.8649 194.489C76.7971 194.45 76.7553 194.377 76.7553 194.299L76.7748 149.91Z" fill="#F9864E"/>
<g filter="url(#filter1_b_10_13837)">
<path fill-rule="evenodd" clip-rule="evenodd" d="M115.82 172.118C115.82 172.059 115.788 172.003 115.736 171.973L77.0765 149.766C76.965 149.702 76.826 149.783 76.8259 149.911L76.8064 194.3C76.8064 194.36 76.8384 194.415 76.8904 194.445L115.55 216.652C115.661 216.716 115.8 216.636 115.8 216.507L115.82 172.118ZM115.787 171.885C115.871 171.933 115.922 172.022 115.922 172.118L115.903 216.507C115.902 216.714 115.678 216.844 115.499 216.741L76.8395 194.534C76.7558 194.486 76.7042 194.397 76.7042 194.3L76.7237 149.911C76.7238 149.704 76.9478 149.574 77.1273 149.678L115.787 171.885Z" fill="white" fill-opacity="0.2"/>
</g>
<path d="M154.991 149.988C154.991 149.796 154.783 149.675 154.616 149.771L116.006 171.917C115.929 171.962 115.881 172.044 115.881 172.134L115.872 216.449C115.872 216.641 116.081 216.762 116.248 216.666L154.857 194.52C154.934 194.476 154.982 194.393 154.982 194.303L154.991 149.988Z" fill="url(#paint1_linear_10_13837)"/>
<path fill-rule="evenodd" clip-rule="evenodd" d="M115.939 172.135C115.939 172.066 115.976 172.002 116.036 171.968L154.645 149.822C154.773 149.749 154.932 149.841 154.932 149.989L154.924 194.304C154.924 194.372 154.887 194.436 154.827 194.47L116.218 216.616C116.09 216.689 115.931 216.597 115.931 216.449L115.939 172.135ZM115.977 171.867C115.881 171.922 115.822 172.024 115.822 172.135L115.814 216.449C115.814 216.687 116.071 216.836 116.277 216.718L154.886 194.572C154.982 194.517 155.041 194.414 155.041 194.304L155.049 149.989C155.049 149.751 154.792 149.602 154.586 149.72L115.977 171.867Z" fill="black" fill-opacity="0.2"/>
<path d="M193.26 171.305C193.327 171.266 193.41 171.266 193.477 171.305L232.135 193.511C232.281 193.595 232.281 193.806 232.135 193.89L193.463 216.071C193.396 216.11 193.313 216.11 193.246 216.071L154.588 193.865C154.442 193.781 154.442 193.57 154.588 193.487L193.26 171.305Z" fill="url(#paint2_linear_10_13837)"/>
<g filter="url(#filter2_b_10_13837)">
<path fill-rule="evenodd" clip-rule="evenodd" d="M232.109 193.843C232.221 193.779 232.221 193.617 232.109 193.553L193.452 171.347C193.4 171.317 193.337 171.317 193.285 171.347L154.613 193.528C154.501 193.593 154.501 193.754 154.613 193.819L193.271 216.025C193.323 216.054 193.386 216.054 193.438 216.025L232.109 193.843ZM232.16 193.464C232.34 193.568 232.34 193.828 232.16 193.931L193.488 216.113C193.405 216.161 193.303 216.161 193.22 216.113L154.563 193.907C154.382 193.804 154.382 193.543 154.563 193.44L193.234 171.258C193.317 171.21 193.419 171.21 193.502 171.258L232.16 193.464Z" fill="url(#paint3_linear_10_13837)"/>
</g>
<path d="M154.248 194.066C154.248 193.898 154.429 193.793 154.575 193.877L193.234 216.084C193.302 216.123 193.344 216.195 193.344 216.273L193.324 260.662C193.324 260.83 193.143 260.935 192.997 260.851L154.338 238.644C154.27 238.605 154.228 238.533 154.228 238.455L154.248 194.066Z" fill="#F9864E"/>
<g filter="url(#filter3_b_10_13837)">
<path fill-rule="evenodd" clip-rule="evenodd" d="M193.293 216.271C193.293 216.211 193.261 216.156 193.209 216.126L154.549 193.918C154.438 193.854 154.299 193.935 154.299 194.063L154.279 238.453C154.279 238.512 154.311 238.568 154.363 238.598L193.023 260.805C193.134 260.869 193.273 260.788 193.273 260.66L193.293 216.271ZM193.26 216.037C193.344 216.085 193.395 216.174 193.395 216.271L193.375 260.66C193.375 260.867 193.151 260.996 192.972 260.893L154.312 238.686C154.229 238.638 154.177 238.549 154.177 238.452L154.197 194.063C154.197 193.856 154.421 193.727 154.6 193.83L193.26 216.037Z" fill="white" fill-opacity="0.2"/>
</g>
<path d="M232.464 194.144C232.464 193.951 232.255 193.831 232.088 193.927L193.479 216.073C193.401 216.117 193.353 216.2 193.353 216.29L193.345 260.605C193.345 260.797 193.553 260.918 193.72 260.822L232.329 238.676C232.407 238.631 232.455 238.549 232.455 238.459L232.464 194.144Z" fill="black" fill-opacity="0.2"/>
<path d="M232.464 194.144C232.464 193.951 232.255 193.831 232.088 193.927L193.479 216.073C193.401 216.117 193.353 216.2 193.353 216.29L193.345 260.605C193.345 260.797 193.553 260.918 193.72 260.822L232.329 238.676C232.407 238.631 232.455 238.549 232.455 238.459L232.464 194.144Z" fill="#693A35"/>
<g filter="url(#filter4_b_10_13837)">
<path fill-rule="evenodd" clip-rule="evenodd" d="M193.412 216.29C193.412 216.222 193.449 216.158 193.508 216.124L232.118 193.978C232.246 193.904 232.405 193.997 232.405 194.144L232.397 238.459C232.397 238.528 232.36 238.591 232.3 238.626L193.691 260.772C193.563 260.845 193.404 260.753 193.404 260.605L193.412 216.29ZM193.45 216.022C193.354 216.077 193.295 216.18 193.295 216.29L193.287 260.605C193.287 260.843 193.543 260.992 193.75 260.873L232.359 238.727C232.455 238.672 232.514 238.57 232.514 238.459L232.522 194.144C232.522 193.907 232.265 193.758 232.059 193.876L193.45 216.022Z" fill="black" fill-opacity="0.2"/>
</g>
<path d="M154.179 104.487C154.246 104.448 154.329 104.448 154.396 104.487L193.054 126.693C193.2 126.777 193.2 126.988 193.054 127.072L154.382 149.254C154.315 149.292 154.232 149.292 154.165 149.253L115.507 127.047C115.361 126.963 115.361 126.753 115.507 126.669L154.179 104.487Z" fill="url(#paint4_linear_10_13837)"/>
<g filter="url(#filter5_b_10_13837)">
<path fill-rule="evenodd" clip-rule="evenodd" d="M193.028 127.025C193.14 126.961 193.14 126.799 193.028 126.735L154.371 104.529C154.319 104.499 154.256 104.499 154.204 104.529L115.532 126.711C115.42 126.775 115.42 126.936 115.532 127.001L154.19 149.207C154.242 149.236 154.305 149.236 154.357 149.207L193.028 127.025ZM193.079 126.646C193.259 126.75 193.259 127.01 193.079 127.114L154.407 149.295C154.324 149.343 154.222 149.343 154.139 149.295L115.481 127.089C115.301 126.986 115.301 126.725 115.482 126.622L154.153 104.44C154.236 104.392 154.338 104.392 154.421 104.44L193.079 126.646Z" fill="white" fill-opacity="0.2"/>
</g>
<path d="M115.167 127.248C115.167 127.08 115.348 126.975 115.494 127.059L154.153 149.266C154.221 149.305 154.263 149.377 154.263 149.455L154.243 193.844C154.243 194.012 154.062 194.117 153.916 194.034L115.257 171.826C115.189 171.788 115.147 171.715 115.147 171.637L115.167 127.248Z" fill="#F9864E"/>
<g filter="url(#filter6_b_10_13837)">
<path fill-rule="evenodd" clip-rule="evenodd" d="M154.212 149.453C154.212 149.393 154.18 149.338 154.128 149.308L115.468 127.101C115.357 127.037 115.218 127.117 115.218 127.246L115.198 171.635C115.198 171.695 115.23 171.75 115.282 171.78L153.942 193.987C154.053 194.051 154.192 193.97 154.192 193.842L154.212 149.453ZM154.179 149.219C154.262 149.267 154.314 149.356 154.314 149.453L154.294 193.842C154.294 194.049 154.07 194.179 153.891 194.075L115.231 171.868C115.148 171.82 115.096 171.731 115.096 171.635L115.116 127.245C115.116 127.038 115.34 126.909 115.519 127.012L154.179 149.219Z" fill="white" fill-opacity="0.2"/>
</g>
<path d="M193.383 127.326C193.383 127.134 193.174 127.013 193.007 127.109L154.398 149.255C154.32 149.299 154.272 149.382 154.272 149.472L154.264 193.787C154.264 193.979 154.472 194.1 154.639 194.004L193.248 171.858C193.326 171.814 193.374 171.731 193.374 171.641L193.383 127.326Z" fill="#693A35"/>
<g filter="url(#filter7_b_10_13837)">
<path fill-rule="evenodd" clip-rule="evenodd" d="M154.331 149.472C154.331 149.404 154.368 149.34 154.427 149.306L193.037 127.16C193.164 127.087 193.324 127.179 193.324 127.326L193.316 171.641C193.316 171.71 193.279 171.774 193.219 171.808L154.61 193.954C154.482 194.027 154.323 193.935 154.323 193.787L154.331 149.472ZM154.369 149.204C154.273 149.259 154.214 149.362 154.214 149.472L154.206 193.787C154.206 194.025 154.462 194.174 154.668 194.055L193.278 171.909C193.374 171.854 193.433 171.752 193.433 171.641L193.441 127.326C193.441 127.089 193.184 126.94 192.978 127.058L154.369 149.204Z" fill="black" fill-opacity="0.2"/>
</g>
<path d="M115.757 37.7509C115.824 37.7123 115.907 37.7124 115.974 37.751L154.632 59.9571C154.778 60.0411 154.778 60.252 154.632 60.3358L115.96 82.5177C115.893 82.5563 115.81 82.5563 115.743 82.5176L77.0851 60.3116C76.9389 60.2276 76.939 60.0167 77.0852 59.9328L115.757 37.7509Z" fill="url(#paint5_linear_10_13837)"/>
<g filter="url(#filter8_b_10_13837)">
<path fill-rule="evenodd" clip-rule="evenodd" d="M154.606 60.2891C154.718 60.2249 154.718 60.0634 154.606 59.9991L115.949 37.7929C115.897 37.7633 115.834 37.7633 115.782 37.7929L77.1106 59.9748C76.9986 60.039 76.9985 60.2006 77.1105 60.2649L115.768 82.471C115.82 82.5006 115.883 82.5006 115.935 82.471L154.606 60.2891ZM154.657 59.9105C154.838 60.0141 154.837 60.2743 154.657 60.3778L115.985 82.5596C115.902 82.6073 115.8 82.6073 115.717 82.5596L77.0596 60.3535C76.8792 60.2499 76.8793 59.9896 77.0597 59.8862L115.731 37.7043C115.814 37.6566 115.916 37.6566 116 37.7043L154.657 59.9105Z" fill="white" fill-opacity="0.2"/>
</g>
<path d="M76.7448 60.5121C76.7449 60.3443 76.9264 60.2393 77.0719 60.3229L115.731 82.5301C115.799 82.5691 115.841 82.6413 115.841 82.7195L115.821 127.108C115.821 127.276 115.64 127.381 115.494 127.298L76.8349 105.091C76.7671 105.052 76.7253 104.979 76.7253 104.901L76.7448 60.5121Z" fill="#F9864E"/>
<g filter="url(#filter9_b_10_13837)">
<path fill-rule="evenodd" clip-rule="evenodd" d="M115.79 82.7171C115.79 82.6572 115.758 82.6018 115.706 82.572L77.0464 60.3647C76.935 60.3007 76.7959 60.3811 76.7959 60.5097L76.7764 104.899C76.7764 104.959 76.8084 105.014 76.8603 105.044L115.52 127.251C115.631 127.315 115.77 127.235 115.77 127.106L115.79 82.7171ZM115.757 82.4834C115.841 82.5314 115.892 82.6206 115.892 82.7171L115.872 127.106C115.872 127.313 115.648 127.443 115.469 127.34L76.8094 105.133C76.7258 105.084 76.6742 104.995 76.6742 104.899L76.6937 60.5097C76.6938 60.3026 76.9178 60.173 77.0973 60.2762L115.757 82.4834Z" fill="white" fill-opacity="0.2"/>
</g>
<path d="M154.961 60.5902C154.961 60.3977 154.753 60.2771 154.586 60.3729L115.976 82.519C115.899 82.5637 115.851 82.6465 115.851 82.7362L115.842 127.051C115.842 127.244 116.05 127.364 116.217 127.268L154.826 105.122C154.904 105.078 154.952 104.995 154.952 104.905L154.961 60.5902Z" fill="url(#paint6_linear_10_13837)"/>
<g filter="url(#filter10_b_10_13837)">
<path fill-rule="evenodd" clip-rule="evenodd" d="M115.909 82.7366C115.909 82.6679 115.946 82.6044 116.005 82.5702L154.615 60.4241C154.743 60.3507 154.902 60.4431 154.902 60.5906L154.894 104.906C154.894 104.974 154.857 105.038 154.797 105.072L116.188 127.218C116.06 127.291 115.901 127.199 115.901 127.051L115.909 82.7366ZM115.947 82.4686C115.851 82.5237 115.792 82.6259 115.792 82.7366L115.784 127.051C115.784 127.289 116.04 127.438 116.247 127.32L154.856 105.174C154.952 105.119 155.011 105.016 155.011 104.906L155.019 60.5906C155.019 60.353 154.762 60.2042 154.556 60.3224L115.947 82.4686Z" fill="black" fill-opacity="0.2"/>
</g>
<path d="M193.237 83.2553C193.305 83.2167 193.388 83.2168 193.455 83.2554L232.112 105.462C232.259 105.545 232.259 105.756 232.112 105.84L193.441 128.022C193.373 128.061 193.291 128.061 193.223 128.022L154.566 105.816C154.42 105.732 154.42 105.521 154.566 105.437L193.237 83.2553Z" fill="url(#paint7_linear_10_13837)"/>
<g filter="url(#filter11_b_10_13837)">
<path fill-rule="evenodd" clip-rule="evenodd" d="M232.087 105.794C232.199 105.729 232.199 105.568 232.087 105.503L193.429 83.2973C193.378 83.2677 193.314 83.2677 193.263 83.2973L154.591 105.479C154.479 105.543 154.479 105.705 154.591 105.769L193.249 127.975C193.3 128.005 193.364 128.005 193.415 127.975L232.087 105.794ZM232.138 105.415C232.318 105.518 232.318 105.779 232.138 105.882L193.466 128.064C193.383 128.112 193.281 128.112 193.198 128.064L154.54 105.858C154.36 105.754 154.36 105.494 154.54 105.391L193.212 83.2086C193.295 83.161 193.397 83.161 193.48 83.2087L232.138 105.415Z" fill="white" fill-opacity="0.2"/>
</g>
<path d="M154.226 106.017C154.226 105.849 154.407 105.744 154.553 105.827L193.212 128.035C193.28 128.073 193.322 128.146 193.322 128.224L193.302 172.613C193.302 172.781 193.121 172.886 192.975 172.802L154.316 150.595C154.248 150.556 154.206 150.484 154.206 150.406L154.226 106.017Z" fill="#F9864E"/>
<g filter="url(#filter12_b_10_13837)">
<path fill-rule="evenodd" clip-rule="evenodd" d="M193.271 128.221C193.271 128.162 193.239 128.106 193.187 128.076L154.527 105.869C154.416 105.805 154.277 105.886 154.277 106.014L154.257 150.403C154.257 150.463 154.289 150.518 154.341 150.548L193 172.755C193.112 172.819 193.251 172.739 193.251 172.61L193.271 128.221ZM193.238 127.988C193.321 128.036 193.373 128.125 193.373 128.222L193.353 172.61C193.353 172.818 193.129 172.947 192.95 172.844L154.29 150.637C154.206 150.589 154.155 150.5 154.155 150.403L154.174 106.014C154.175 105.807 154.398 105.677 154.578 105.781L193.238 127.988Z" fill="white" fill-opacity="0.2"/>
</g>
<path d="M232.441 106.095C232.441 105.902 232.233 105.781 232.066 105.877L193.457 128.023C193.379 128.068 193.331 128.151 193.331 128.241L193.323 172.555C193.323 172.748 193.531 172.869 193.698 172.773L232.307 150.627C232.385 150.582 232.433 150.499 232.433 150.41L232.441 106.095Z" fill="#7D3D37"/>
<g filter="url(#filter13_b_10_13837)">
<path fill-rule="evenodd" clip-rule="evenodd" d="M193.39 128.241C193.39 128.172 193.427 128.109 193.486 128.075L232.095 105.929C232.223 105.855 232.383 105.948 232.383 106.095L232.374 150.41C232.374 150.479 232.338 150.542 232.278 150.576L193.669 172.722C193.541 172.796 193.382 172.703 193.382 172.556L193.39 128.241ZM193.428 127.973C193.332 128.028 193.273 128.13 193.273 128.241L193.264 172.556C193.264 172.793 193.521 172.942 193.727 172.824L232.336 150.678C232.432 150.623 232.492 150.521 232.492 150.41L232.5 106.095C232.5 105.857 232.243 105.709 232.037 105.827L193.428 127.973Z" fill="black" fill-opacity="0.2"/>
</g>
</g>
<defs>
<filter id="filter0_b_10_13837" x="65.0733" y="115.185" width="101.63" height="68.6887" filterUnits="userSpaceOnUse" color-interpolation-filters="sRGB">
<feFlood flood-opacity="0" result="BackgroundImageFix"/>
<feGaussianBlur in="BackgroundImageFix" stdDeviation="5.9405"/>
<feComposite in2="SourceAlpha" operator="in" result="effect1_backgroundBlur_10_13837"/>
<feBlend mode="normal" in="SourceGraphic" in2="effect1_backgroundBlur_10_13837" result="shape"/>
</filter>
<filter id="filter1_b_10_13837" x="58.541" y="131.478" width="75.5445" height="103.463" filterUnits="userSpaceOnUse" color-interpolation-filters="sRGB">
<feFlood flood-opacity="0" result="BackgroundImageFix"/>
<feGaussianBlur in="BackgroundImageFix" stdDeviation="9.08168"/>
<feComposite in2="SourceAlpha" operator="in" result="effect1_backgroundBlur_10_13837"/>
<feBlend mode="normal" in="SourceGraphic" in2="effect1_backgroundBlur_10_13837" result="shape"/>
</filter>
<filter id="filter2_b_10_13837" x="142.546" y="159.341" width="101.63" height="68.6887" filterUnits="userSpaceOnUse" color-interpolation-filters="sRGB">
<feFlood flood-opacity="0" result="BackgroundImageFix"/>
<feGaussianBlur in="BackgroundImageFix" stdDeviation="5.9405"/>
<feComposite in2="SourceAlpha" operator="in" result="effect1_backgroundBlur_10_13837"/>
<feBlend mode="normal" in="SourceGraphic" in2="effect1_backgroundBlur_10_13837" result="shape"/>
</filter>
<filter id="filter3_b_10_13837" x="136.014" y="175.63" width="75.5445" height="103.463" filterUnits="userSpaceOnUse" color-interpolation-filters="sRGB">
<feFlood flood-opacity="0" result="BackgroundImageFix"/>
<feGaussianBlur in="BackgroundImageFix" stdDeviation="9.08168"/>
<feComposite in2="SourceAlpha" operator="in" result="effect1_backgroundBlur_10_13837"/>
<feBlend mode="normal" in="SourceGraphic" in2="effect1_backgroundBlur_10_13837" result="shape"/>
</filter>
<filter id="filter4_b_10_13837" x="189.883" y="190.431" width="46.0433" height="73.8878" filterUnits="userSpaceOnUse" color-interpolation-filters="sRGB">
<feFlood flood-opacity="0" result="BackgroundImageFix"/>
<feGaussianBlur in="BackgroundImageFix" stdDeviation="1.70192"/>
<feComposite in2="SourceAlpha" operator="in" result="effect1_backgroundBlur_10_13837"/>
<feBlend mode="normal" in="SourceGraphic" in2="effect1_backgroundBlur_10_13837" result="shape"/>
</filter>
<filter id="filter5_b_10_13837" x="103.465" y="92.5233" width="101.63" height="68.6887" filterUnits="userSpaceOnUse" color-interpolation-filters="sRGB">
<feFlood flood-opacity="0" result="BackgroundImageFix"/>
<feGaussianBlur in="BackgroundImageFix" stdDeviation="5.9405"/>
<feComposite in2="SourceAlpha" operator="in" result="effect1_backgroundBlur_10_13837"/>
<feBlend mode="normal" in="SourceGraphic" in2="effect1_backgroundBlur_10_13837" result="shape"/>
</filter>
<filter id="filter6_b_10_13837" x="96.9328" y="108.812" width="75.5445" height="103.463" filterUnits="userSpaceOnUse" color-interpolation-filters="sRGB">
<feFlood flood-opacity="0" result="BackgroundImageFix"/>
<feGaussianBlur in="BackgroundImageFix" stdDeviation="9.08168"/>
<feComposite in2="SourceAlpha" operator="in" result="effect1_backgroundBlur_10_13837"/>
<feBlend mode="normal" in="SourceGraphic" in2="effect1_backgroundBlur_10_13837" result="shape"/>
</filter>
<filter id="filter7_b_10_13837" x="150.802" y="123.613" width="46.0433" height="73.8878" filterUnits="userSpaceOnUse" color-interpolation-filters="sRGB">
<feFlood flood-opacity="0" result="BackgroundImageFix"/>
<feGaussianBlur in="BackgroundImageFix" stdDeviation="1.70192"/>
<feComposite in2="SourceAlpha" operator="in" result="effect1_backgroundBlur_10_13837"/>
<feBlend mode="normal" in="SourceGraphic" in2="effect1_backgroundBlur_10_13837" result="shape"/>
</filter>
<filter id="filter8_b_10_13837" x="65.0433" y="25.7875" width="101.63" height="68.6887" filterUnits="userSpaceOnUse" color-interpolation-filters="sRGB">
<feFlood flood-opacity="0" result="BackgroundImageFix"/>
<feGaussianBlur in="BackgroundImageFix" stdDeviation="5.9405"/>
<feComposite in2="SourceAlpha" operator="in" result="effect1_backgroundBlur_10_13837"/>
<feBlend mode="normal" in="SourceGraphic" in2="effect1_backgroundBlur_10_13837" result="shape"/>
</filter>
<filter id="filter9_b_10_13837" x="58.511" y="42.0764" width="75.5445" height="103.463" filterUnits="userSpaceOnUse" color-interpolation-filters="sRGB">
<feFlood flood-opacity="0" result="BackgroundImageFix"/>
<feGaussianBlur in="BackgroundImageFix" stdDeviation="9.08168"/>
<feComposite in2="SourceAlpha" operator="in" result="effect1_backgroundBlur_10_13837"/>
<feBlend mode="normal" in="SourceGraphic" in2="effect1_backgroundBlur_10_13837" result="shape"/>
</filter>
<filter id="filter10_b_10_13837" x="112.38" y="56.8769" width="46.0433" height="73.8878" filterUnits="userSpaceOnUse" color-interpolation-filters="sRGB">
<feFlood flood-opacity="0" result="BackgroundImageFix"/>
<feGaussianBlur in="BackgroundImageFix" stdDeviation="1.70192"/>
<feComposite in2="SourceAlpha" operator="in" result="effect1_backgroundBlur_10_13837"/>
<feBlend mode="normal" in="SourceGraphic" in2="effect1_backgroundBlur_10_13837" result="shape"/>
</filter>
<filter id="filter11_b_10_13837" x="142.524" y="71.2919" width="101.63" height="68.6887" filterUnits="userSpaceOnUse" color-interpolation-filters="sRGB">
<feFlood flood-opacity="0" result="BackgroundImageFix"/>
<feGaussianBlur in="BackgroundImageFix" stdDeviation="5.9405"/>
<feComposite in2="SourceAlpha" operator="in" result="effect1_backgroundBlur_10_13837"/>
<feBlend mode="normal" in="SourceGraphic" in2="effect1_backgroundBlur_10_13837" result="shape"/>
</filter>
<filter id="filter12_b_10_13837" x="135.992" y="87.5808" width="75.5445" height="103.463" filterUnits="userSpaceOnUse" color-interpolation-filters="sRGB">
<feFlood flood-opacity="0" result="BackgroundImageFix"/>
<feGaussianBlur in="BackgroundImageFix" stdDeviation="9.08168"/>
<feComposite in2="SourceAlpha" operator="in" result="effect1_backgroundBlur_10_13837"/>
<feBlend mode="normal" in="SourceGraphic" in2="effect1_backgroundBlur_10_13837" result="shape"/>
</filter>
<filter id="filter13_b_10_13837" x="189.861" y="102.381" width="46.0433" height="73.8878" filterUnits="userSpaceOnUse" color-interpolation-filters="sRGB">
<feFlood flood-opacity="0" result="BackgroundImageFix"/>
<feGaussianBlur in="BackgroundImageFix" stdDeviation="1.70192"/>
<feComposite in2="SourceAlpha" operator="in" result="effect1_backgroundBlur_10_13837"/>
<feBlend mode="normal" in="SourceGraphic" in2="effect1_backgroundBlur_10_13837" result="shape"/>
</filter>
<linearGradient id="paint0_linear_10_13837" x1="65.0232" y1="137.7" x2="119.446" y2="140" gradientUnits="userSpaceOnUse">
<stop stop-color="#FFBB56"/>
<stop offset="1" stop-color="#F04242"/>
</linearGradient>
<linearGradient id="paint1_linear_10_13837" x1="120.048" y1="167.825" x2="118.573" y2="202.723" gradientUnits="userSpaceOnUse">
<stop stop-color="#520F08"/>
<stop offset="1" stop-color="#B35248"/>
</linearGradient>
<linearGradient id="paint2_linear_10_13837" x1="207.11" y1="207.874" x2="178.507" y2="177.606" gradientUnits="userSpaceOnUse">
<stop stop-color="#FFCF88"/>
<stop offset="0.505208" stop-color="#F45B47"/>
<stop offset="1" stop-color="#7D3D37"/>
</linearGradient>
<linearGradient id="paint3_linear_10_13837" x1="207.135" y1="207.898" x2="178.479" y2="177.573" gradientUnits="userSpaceOnUse">
<stop stop-color="#FFCF88"/>
<stop offset="0.505208" stop-color="#F45B47"/>
<stop offset="1" stop-color="#7D3D37"/>
</linearGradient>
<linearGradient id="paint4_linear_10_13837" x1="130.051" y1="137.701" x2="131.201" y2="110.49" gradientUnits="userSpaceOnUse">
<stop stop-color="#FFC978"/>
<stop offset="1" stop-color="#B03E3E"/>
</linearGradient>
<linearGradient id="paint5_linear_10_13837" x1="129.653" y1="74.367" x2="100.954" y2="43.9986" gradientUnits="userSpaceOnUse">
<stop stop-color="#FFBB56"/>
<stop offset="1" stop-color="#F05D5D"/>
</linearGradient>
<linearGradient id="paint6_linear_10_13837" x1="141.526" y1="118.576" x2="122.401" y2="87.9757" gradientUnits="userSpaceOnUse">
<stop stop-color="#520F08"/>
<stop offset="1" stop-color="#B35248"/>
</linearGradient>
<linearGradient id="paint7_linear_10_13837" x1="207.133" y1="119.871" x2="178.435" y2="89.5029" gradientUnits="userSpaceOnUse">
<stop stop-color="#FFBB56"/>
<stop offset="1" stop-color="#F05D5D"/>
</linearGradient>
<clipPath id="clip0_10_13837">
<rect width="175.95" height="240.774" fill="white" transform="translate(68.8501 32.6133)"/>
</clipPath>
</defs>
</svg>
