<svg width="201" height="24" viewBox="0 0 201 24" fill="none" xmlns="http://www.w3.org/2000/svg">
<path d="M9.01883 0.786133L17.8641 5.78207V15.7739L9.01883 20.7699L0.173584 15.7739V5.78207L9.01883 0.786133Z" fill="#38393A"/>
<path d="M9.02602 0.786133L14.7754 10.778H3.27661L9.02602 0.786133Z" fill="#B5B5B5"/>
<path d="M9.02515 0.786133L17.8769 5.78207L14.7754 10.778L9.02515 0.786133Z" fill="#8F8F8F"/>
<path d="M9.02271 0.786133L3.27586 10.778L0.174318 5.78207L9.02271 0.786133Z" fill="#CDCDCD"/>
<path d="M14.7608 10.7798L17.8623 15.7757L9.02515 20.7717L14.7608 10.7798Z" fill="#5C5C5C"/>
<path d="M0.174061 15.7754L3.27559 10.7794L9.02586 20.7713L0.174061 15.7754Z" fill="#B0B0B0"/>
<path d="M9.02546 20.771L3.27606 10.7791L14.7749 10.7791L9.02546 20.771Z" fill="#9B9B9B"/>
<path d="M3.27612 10.7806L0.174591 15.7765L0.174596 5.78467L3.27612 10.7806Z" fill="#E0E0E0"/>
<path d="M24.6101 17.8808C24.4041 17.8808 24.3104 17.7471 24.3854 17.5561L28.7684 4.73842C28.8246 4.5856 28.9745 4.50919 29.1243 4.50919H31.3908C31.5406 4.50919 31.6905 4.5856 31.7466 4.73842L36.1297 17.5561C36.2046 17.7471 36.0922 17.8808 35.8862 17.8808H33.6759C33.5261 17.8808 33.4137 17.8235 33.3575 17.6516L32.7207 15.684H27.7757L27.1388 17.6516C27.0826 17.8235 26.9702 17.8808 26.8204 17.8808H24.6101ZM28.5436 13.258H31.9527L30.2482 7.9476L28.5436 13.258Z" fill="#2B2E32"/>
<path d="M38.1764 17.8808C38.0078 17.8808 37.8954 17.7662 37.8954 17.5943V4.50919C37.8954 4.33727 38.0078 4.22266 38.1764 4.22266H40.218C40.3866 4.22266 40.499 4.33727 40.499 4.50919V17.5943C40.499 17.7662 40.3866 17.8808 40.218 17.8808H38.1764Z" fill="#2B2E32"/>
<path d="M43.0054 17.8808C42.8369 17.8808 42.7245 17.7662 42.7245 17.5943V4.50919C42.7245 4.33727 42.8369 4.22266 43.0054 4.22266H45.0471C45.2157 4.22266 45.3281 4.33727 45.3281 4.50919V17.5943C45.3281 17.7662 45.2157 17.8808 45.0471 17.8808H43.0054Z" fill="#2B2E32"/>
<path d="M51.8991 18.11C49.127 18.11 47.0853 15.9706 47.0853 13.2007C47.0853 10.4309 49.127 8.29144 51.8991 8.29144C54.6526 8.29144 56.6943 10.4309 56.6943 13.2007C56.6943 15.9706 54.6526 18.11 51.8991 18.11ZM49.5765 13.2007C49.5765 14.7289 50.588 15.684 51.8991 15.684C53.1916 15.684 54.2031 14.7289 54.2031 13.2007C54.2031 11.6725 53.1916 10.7174 51.8991 10.7174C50.588 10.7174 49.5765 11.6725 49.5765 13.2007Z" fill="#2B2E32"/>
<path d="M59.6706 21.5102C59.4646 21.5102 59.3522 21.3956 59.4458 21.1855L60.7757 17.8999L57.2356 8.84541C57.1606 8.63529 57.2543 8.52067 57.4603 8.52067H59.5207C59.6706 8.52067 59.8017 8.59708 59.8579 8.7499L62.0494 14.8244L64.2222 8.7499C64.2784 8.59708 64.4095 8.52067 64.5594 8.52067H66.6198C66.8258 8.52067 66.9195 8.63529 66.8446 8.84541L61.9932 21.281C61.937 21.4338 61.8059 21.5102 61.6561 21.5102H59.6706Z" fill="#2B2E32"/>
<path d="M68.6098 17.8808C68.4038 17.8808 68.3288 17.7471 68.4038 17.5561L72.9367 4.73842C72.9929 4.5856 73.124 4.50919 73.2738 4.50919H74.304C74.4539 4.50919 74.585 4.5856 74.6412 4.73842L79.1928 17.5561C79.2677 17.7471 79.1928 17.8808 78.9868 17.8808H78.0502C77.9004 17.8808 77.8067 17.8235 77.7505 17.6516L76.7953 14.8817H70.8013L69.8461 17.6516C69.7899 17.8235 69.6962 17.8808 69.5276 17.8808H68.6098ZM71.2509 13.6019H76.3457L73.7983 6.2284L71.2509 13.6019Z" fill="#2B2E32"/>
<path d="M84.5524 18.11C82.5669 18.11 81.2183 16.7729 81.2183 14.2896V8.7881C81.2183 8.61618 81.2932 8.52067 81.4618 8.52067H82.3234C82.492 8.52067 82.5669 8.61618 82.5669 8.7881V14.1558C82.5669 15.8177 83.4098 16.8302 84.927 16.8302C86.4442 16.8302 87.6055 15.8177 87.6055 14.1558V8.7881C87.6055 8.61618 87.6617 8.52067 87.8303 8.52067H88.7106C88.8792 8.52067 88.9541 8.61618 88.9541 8.7881V17.6134C88.9541 17.7853 88.8792 17.8808 88.7106 17.8808H87.9052C87.7179 17.8808 87.6617 17.8044 87.643 17.5943L87.6055 16.3908C87.081 17.3459 86.0696 18.11 84.5524 18.11Z" fill="#2B2E32"/>
<path d="M94.6381 17.9954C93.3644 17.9954 92.6901 17.3459 92.6901 15.9706V9.66681H91.4913C91.3227 9.66681 91.2291 9.5713 91.2291 9.39938V8.7881C91.2291 8.61618 91.3227 8.52067 91.4913 8.52067H92.6901V6.30481C92.6901 6.13289 92.765 6.03737 92.9336 6.03737H93.7952C93.9638 6.03737 94.0387 6.13289 94.0387 6.30481V8.52067H95.5934C95.762 8.52067 95.8556 8.61618 95.8556 8.7881V9.39938C95.8556 9.5713 95.762 9.66681 95.5934 9.66681H94.0387V15.7795C94.0387 16.5054 94.3197 16.7729 94.8816 16.7729C95.0315 16.7729 95.2937 16.7538 95.4623 16.7347C95.7433 16.6965 95.8182 16.792 95.8182 16.983V17.5752C95.8182 17.8999 95.1251 17.9954 94.6381 17.9954Z" fill="#2B2E32"/>
<path d="M102.28 18.11C99.6015 18.11 97.5786 15.9897 97.5786 13.2007C97.5786 10.4118 99.6015 8.29144 102.28 8.29144C104.94 8.29144 106.963 10.4118 106.963 13.2007C106.963 15.9897 104.94 18.11 102.28 18.11ZM98.8898 13.2007C98.8898 15.3211 100.332 16.8302 102.28 16.8302C104.209 16.8302 105.652 15.3211 105.652 13.2007C105.652 11.0804 104.209 9.5713 102.28 9.5713C100.332 9.5713 98.8898 11.0804 98.8898 13.2007Z" fill="#2B2E32"/>
<path d="M109.577 17.8808C109.408 17.8808 109.333 17.7853 109.333 17.6134V8.7881C109.333 8.61618 109.408 8.52067 109.577 8.52067H110.363C110.551 8.52067 110.625 8.59708 110.625 8.80721L110.663 9.87693C111.112 8.99823 111.918 8.29144 113.267 8.29144C114.54 8.29144 115.496 8.90272 115.964 10.1253C116.432 9.11284 117.294 8.29144 118.848 8.29144C120.74 8.29144 121.883 9.5522 121.883 12.0164V17.6134C121.883 17.7853 121.808 17.8808 121.639 17.8808H120.778C120.609 17.8808 120.534 17.7853 120.534 17.6134V12.1692C120.534 10.5264 119.879 9.5713 118.549 9.5713C117.2 9.5713 116.282 10.5455 116.282 12.1692V17.6134C116.282 17.7853 116.207 17.8808 116.039 17.8808H115.177C115.009 17.8808 114.934 17.7853 114.934 17.6134V12.1692C114.934 10.5264 114.184 9.5713 112.854 9.5713C111.487 9.5713 110.682 10.5455 110.682 12.1692V17.6134C110.682 17.7853 110.607 17.8808 110.438 17.8808H109.577Z" fill="#2B2E32"/>
<path d="M128.781 18.11C126.102 18.11 124.267 16.0088 124.267 13.2007C124.267 10.4118 126.102 8.29144 128.781 8.29144C130.429 8.29144 131.628 9.11284 132.302 10.3545L132.34 8.7881C132.34 8.61618 132.415 8.52067 132.583 8.52067H133.389C133.557 8.52067 133.632 8.61618 133.632 8.7881V17.6134C133.632 17.7853 133.557 17.8808 133.389 17.8808H132.583C132.415 17.8808 132.34 17.7853 132.34 17.6134L132.302 16.0852C131.628 17.3459 130.429 18.11 128.781 18.11ZM125.578 13.2007C125.578 15.3784 127.001 16.8302 128.968 16.8302C130.935 16.8302 132.302 15.3975 132.302 13.2389C132.302 11.0613 130.935 9.5713 128.968 9.5713C127.001 9.5713 125.578 11.0422 125.578 13.2007Z" fill="#2B2E32"/>
<path d="M139.307 17.9954C138.033 17.9954 137.359 17.3459 137.359 15.9706V9.66681H136.16C135.992 9.66681 135.898 9.5713 135.898 9.39938V8.7881C135.898 8.61618 135.992 8.52067 136.16 8.52067H137.359V6.30481C137.359 6.13289 137.434 6.03737 137.603 6.03737H138.464C138.633 6.03737 138.708 6.13289 138.708 6.30481V8.52067H140.262C140.431 8.52067 140.525 8.61618 140.525 8.7881V9.39938C140.525 9.5713 140.431 9.66681 140.262 9.66681H138.708V15.7795C138.708 16.5054 138.989 16.7729 139.551 16.7729C139.7 16.7729 139.963 16.7538 140.131 16.7347C140.412 16.6965 140.487 16.792 140.487 16.983V17.5752C140.487 17.8999 139.794 17.9954 139.307 17.9954Z" fill="#2B2E32"/>
<path d="M143.482 6.09468C143.013 6.09468 142.639 5.71263 142.639 5.23508C142.639 4.73842 143.013 4.35637 143.482 4.35637C143.95 4.35637 144.325 4.73842 144.325 5.23508C144.325 5.71263 143.95 6.09468 143.482 6.09468ZM142.807 17.6134V8.7881C142.807 8.61618 142.882 8.52067 143.051 8.52067H143.912C144.081 8.52067 144.156 8.61618 144.156 8.7881V17.6134C144.156 17.7853 144.081 17.8808 143.912 17.8808H143.051C142.882 17.8808 142.807 17.7853 142.807 17.6134Z" fill="#2B2E32"/>
<path d="M151.211 18.11C148.533 18.11 146.51 15.9897 146.51 13.2007C146.51 10.4118 148.533 8.29144 151.211 8.29144C153.871 8.29144 155.894 10.4118 155.894 13.2007C155.894 15.9897 153.871 18.11 151.211 18.11ZM147.821 13.2007C147.821 15.3211 149.263 16.8302 151.211 16.8302C153.14 16.8302 154.583 15.3211 154.583 13.2007C154.583 11.0804 153.14 9.5713 151.211 9.5713C149.263 9.5713 147.821 11.0804 147.821 13.2007Z" fill="#2B2E32"/>
<path d="M158.508 17.8808C158.339 17.8808 158.264 17.7853 158.264 17.6134V8.7881C158.264 8.61618 158.339 8.52067 158.508 8.52067H159.294C159.482 8.52067 159.557 8.59708 159.557 8.80721L159.613 10.0106C160.137 9.05554 161.13 8.29144 162.647 8.29144C164.651 8.29144 166 9.6286 166 12.1119V17.6134C166 17.7853 165.925 17.8808 165.756 17.8808H164.876C164.708 17.8808 164.651 17.7853 164.651 17.6134V12.2456C164.651 10.5837 163.79 9.5713 162.272 9.5713C160.755 9.5713 159.613 10.5837 159.613 12.2456V17.6134C159.613 17.7853 159.538 17.8808 159.369 17.8808H158.508Z" fill="#2B2E32"/>
<path d="M174.812 9H172.793V2.45455H174.902C175.537 2.45455 176.08 2.58558 176.532 2.84766C176.984 3.1076 177.33 3.48153 177.571 3.96946C177.811 4.45526 177.932 5.03693 177.932 5.71449C177.932 6.39631 177.81 6.98331 177.567 7.4755C177.325 7.96555 176.971 8.34268 176.506 8.60689C176.042 8.86896 175.477 9 174.812 9ZM173.585 8.29688H174.761C175.303 8.29688 175.751 8.19247 176.107 7.98366C176.463 7.77486 176.728 7.47763 176.903 7.09197C177.077 6.70632 177.165 6.24716 177.165 5.71449C177.165 5.18608 177.078 4.73118 176.906 4.34979C176.733 3.96626 176.475 3.67223 176.132 3.46768C175.789 3.26101 175.362 3.15767 174.851 3.15767H173.585V8.29688ZM185.684 5.72727C185.684 6.41761 185.559 7.0142 185.31 7.51705C185.061 8.01989 184.719 8.40767 184.284 8.6804C183.85 8.95312 183.353 9.08949 182.795 9.08949C182.237 9.08949 181.74 8.95312 181.306 8.6804C180.871 8.40767 180.529 8.01989 180.28 7.51705C180.03 7.0142 179.906 6.41761 179.906 5.72727C179.906 5.03693 180.03 4.44034 180.28 3.9375C180.529 3.43466 180.871 3.04687 181.306 2.77415C181.74 2.50142 182.237 2.36506 182.795 2.36506C183.353 2.36506 183.85 2.50142 184.284 2.77415C184.719 3.04687 185.061 3.43466 185.31 3.9375C185.559 4.44034 185.684 5.03693 185.684 5.72727ZM184.917 5.72727C184.917 5.16051 184.822 4.68217 184.633 4.29226C184.445 3.90234 184.19 3.60724 183.869 3.40696C183.549 3.20668 183.191 3.10653 182.795 3.10653C182.399 3.10653 182.04 3.20668 181.718 3.40696C181.398 3.60724 181.144 3.90234 180.954 4.29226C180.766 4.68217 180.673 5.16051 180.673 5.72727C180.673 6.29403 180.766 6.77237 180.954 7.16229C181.144 7.5522 181.398 7.8473 181.718 8.04759C182.04 8.24787 182.399 8.34801 182.795 8.34801C183.191 8.34801 183.549 8.24787 183.869 8.04759C184.19 7.8473 184.445 7.5522 184.633 7.16229C184.822 6.77237 184.917 6.29403 184.917 5.72727ZM193.184 4.5H192.391C192.344 4.27202 192.262 4.07173 192.145 3.89915C192.03 3.72656 191.889 3.58168 191.723 3.46449C191.559 3.34517 191.377 3.25568 191.177 3.19602C190.976 3.13636 190.768 3.10653 190.55 3.10653C190.154 3.10653 189.795 3.20668 189.473 3.40696C189.154 3.60724 188.899 3.90234 188.709 4.29226C188.522 4.68217 188.428 5.16051 188.428 5.72727C188.428 6.29403 188.522 6.77237 188.709 7.16229C188.899 7.5522 189.154 7.8473 189.473 8.04759C189.795 8.24787 190.154 8.34801 190.55 8.34801C190.768 8.34801 190.976 8.31818 191.177 8.25852C191.377 8.19886 191.559 8.11044 191.723 7.99325C191.889 7.87393 192.03 7.72798 192.145 7.5554C192.262 7.38068 192.344 7.1804 192.391 6.95455H193.184C193.124 7.28906 193.016 7.58842 192.858 7.85263C192.7 8.11683 192.504 8.34162 192.27 8.52699C192.035 8.71023 191.772 8.84979 191.48 8.94567C191.191 9.04155 190.881 9.08949 190.55 9.08949C189.992 9.08949 189.496 8.95312 189.061 8.6804C188.626 8.40767 188.284 8.01989 188.035 7.51705C187.786 7.0142 187.661 6.41761 187.661 5.72727C187.661 5.03693 187.786 4.44034 188.035 3.9375C188.284 3.43466 188.626 3.04687 189.061 2.77415C189.496 2.50142 189.992 2.36506 190.55 2.36506C190.881 2.36506 191.191 2.413 191.48 2.50888C191.772 2.60476 192.035 2.74538 192.27 2.93075C192.504 3.11399 192.7 3.33771 192.858 3.60192C193.016 3.86399 193.124 4.16335 193.184 4.5ZM198.944 4.09091C198.906 3.76705 198.75 3.51562 198.478 3.33665C198.205 3.15767 197.87 3.06818 197.474 3.06818C197.184 3.06818 196.931 3.11506 196.713 3.20881C196.498 3.30256 196.33 3.43146 196.208 3.59553C196.089 3.75959 196.029 3.94602 196.029 4.15483C196.029 4.32955 196.071 4.47976 196.154 4.60547C196.239 4.72905 196.348 4.83239 196.48 4.91548C196.612 4.99645 196.751 5.06357 196.896 5.11683C197.04 5.16797 197.174 5.20952 197.295 5.24148L197.96 5.42045C198.13 5.4652 198.32 5.52699 198.529 5.60582C198.74 5.68466 198.941 5.79226 199.133 5.92862C199.327 6.06285 199.486 6.23544 199.612 6.44638C199.738 6.65732 199.801 6.91619 199.801 7.22301C199.801 7.5767 199.708 7.89631 199.523 8.18182C199.339 8.46733 199.071 8.69425 198.717 8.86257C198.366 9.03089 197.939 9.11506 197.436 9.11506C196.967 9.11506 196.561 9.03942 196.218 8.88814C195.877 8.73686 195.609 8.52592 195.413 8.25533C195.219 7.98473 195.109 7.67045 195.083 7.3125H195.902C195.923 7.55966 196.006 7.7642 196.151 7.92614C196.298 8.08594 196.483 8.20526 196.707 8.28409C196.933 8.3608 197.176 8.39915 197.436 8.39915C197.738 8.39915 198.01 8.35014 198.251 8.25213C198.491 8.15199 198.682 8.01349 198.823 7.83665C198.963 7.65767 199.034 7.44886 199.034 7.21023C199.034 6.9929 198.973 6.81605 198.852 6.67969C198.73 6.54332 198.57 6.43253 198.372 6.3473C198.174 6.26207 197.96 6.1875 197.73 6.12358L196.924 5.89347C196.413 5.74645 196.008 5.53658 195.71 5.26385C195.412 4.99112 195.262 4.63423 195.262 4.19318C195.262 3.8267 195.361 3.5071 195.56 3.23438C195.76 2.95952 196.028 2.74645 196.365 2.59517C196.704 2.44176 197.082 2.36506 197.5 2.36506C197.922 2.36506 198.297 2.4407 198.625 2.59197C198.953 2.74112 199.213 2.94567 199.404 3.20561C199.598 3.46555 199.701 3.76065 199.711 4.09091H198.944Z" fill="black"/>
</svg>
