<svg width="306" height="306" viewBox="0 0 306 306" fill="none" xmlns="http://www.w3.org/2000/svg">
<g clip-path="url(#clip0_269_125)">
<path d="M186.736 143.138C186.807 143.097 186.895 143.097 186.967 143.138L234.044 170.181C234.199 170.27 234.199 170.494 234.044 170.583L186.95 197.596C186.878 197.637 186.79 197.637 186.718 197.596L139.641 170.554C139.486 170.465 139.486 170.24 139.641 170.151L186.736 143.138Z" fill="#C32973"/>
<g filter="url(#filter0_b_269_125)">
<path fill-rule="evenodd" clip-rule="evenodd" d="M234.017 170.535C234.136 170.467 234.136 170.295 234.017 170.227L186.94 143.184C186.885 143.153 186.817 143.153 186.763 143.184L139.668 170.197C139.549 170.265 139.549 170.437 139.668 170.506L186.746 197.548C186.8 197.58 186.868 197.58 186.923 197.548L234.017 170.535ZM234.071 170.132C234.263 170.243 234.262 170.519 234.071 170.629L186.977 197.642C186.888 197.693 186.78 197.693 186.691 197.642L139.614 170.6C139.423 170.49 139.423 170.213 139.614 170.103L186.709 143.09C186.797 143.039 186.905 143.039 186.994 143.09L234.071 170.132Z" fill="white" fill-opacity="0.2"/>
</g>
<path d="M139.28 170.77C139.28 170.592 139.473 170.48 139.628 170.569L186.707 197.613C186.779 197.654 186.824 197.731 186.824 197.814L186.8 251.871C186.8 252.049 186.607 252.161 186.452 252.072L139.373 225.029C139.301 224.987 139.257 224.911 139.257 224.827L139.28 170.77Z" fill="#E04BB6"/>
<g filter="url(#filter1_b_269_125)">
<path fill-rule="evenodd" clip-rule="evenodd" d="M186.769 197.815C186.769 197.751 186.735 197.692 186.68 197.661L139.601 170.617C139.482 170.549 139.335 170.634 139.335 170.771L139.311 224.828C139.311 224.892 139.345 224.951 139.4 224.982L186.479 252.026C186.598 252.094 186.745 252.008 186.745 251.872L186.769 197.815ZM186.734 197.567C186.823 197.618 186.878 197.712 186.878 197.815L186.854 251.872C186.854 252.092 186.616 252.23 186.425 252.12L139.346 225.076C139.257 225.025 139.202 224.931 139.202 224.828L139.226 170.771C139.226 170.551 139.464 170.413 139.655 170.523L186.734 197.567Z" fill="#E259BC"/>
</g>
<path d="M234.393 170.86C234.393 170.655 234.172 170.527 233.994 170.628L186.966 197.603C186.884 197.651 186.833 197.739 186.833 197.834L186.823 251.812C186.823 252.017 187.044 252.145 187.221 252.043L234.249 225.069C234.332 225.021 234.383 224.933 234.383 224.838L234.393 170.86Z" fill="#C82C77"/>
<path d="M137.511 58.44L185.055 85.7503L137.494 113.031L89.9508 85.7205L137.511 58.44Z" fill="#F94E93"/>
<path d="M89.9385 86.1377C89.9386 85.9593 90.1315 85.8476 90.2862 85.9365L137.365 112.98C137.438 113.022 137.482 113.098 137.482 113.182L137.458 167.238C137.458 167.417 137.265 167.528 137.11 167.439L90.0313 140.396C89.9592 140.354 89.9148 140.278 89.9148 140.195L89.9385 86.1377Z" fill="#FFAFE9"/>
<g filter="url(#filter2_b_269_125)">
<path fill-rule="evenodd" clip-rule="evenodd" d="M137.428 113.184C137.428 113.12 137.394 113.062 137.338 113.03L90.2592 85.9862C90.1407 85.9181 89.9929 86.0036 89.9928 86.1403L89.9691 140.197C89.9691 140.261 90.0031 140.32 90.0583 140.351L137.137 167.395C137.256 167.463 137.404 167.377 137.404 167.241L137.428 113.184ZM137.392 112.936C137.481 112.987 137.536 113.082 137.536 113.184L137.512 167.241C137.512 167.461 137.274 167.599 137.083 167.489L90.0042 140.446C89.9153 140.395 89.8604 140.3 89.8605 140.197L89.8842 86.1402C89.8843 85.9201 90.1224 85.7824 90.3133 85.892L137.392 112.936Z" fill="white" fill-opacity="0.2"/>
</g>
<path d="M185.053 86.2267C185.053 86.022 184.832 85.8938 184.654 85.9957L137.627 112.971C137.544 113.018 137.493 113.106 137.493 113.202L137.483 167.179C137.483 167.384 137.704 167.512 137.882 167.41L184.909 140.436C184.992 140.388 185.043 140.3 185.043 140.205L185.053 86.2267Z" fill="#C32973"/>
<g filter="url(#filter3_b_269_125)">
<path fill-rule="evenodd" clip-rule="evenodd" d="M137.555 113.204C137.555 113.131 137.594 113.063 137.658 113.027L184.685 86.0519C184.821 85.9739 184.991 86.0721 184.991 86.2289L184.981 140.207C184.981 140.28 184.942 140.348 184.878 140.384L137.851 167.359C137.715 167.437 137.545 167.338 137.545 167.182L137.555 113.204ZM137.596 112.919C137.493 112.977 137.43 113.086 137.43 113.204L137.42 167.182C137.42 167.434 137.693 167.592 137.913 167.467L184.94 140.492C185.042 140.433 185.105 140.325 185.105 140.207L185.115 86.2289C185.115 85.9764 184.842 85.8182 184.623 85.9438L137.596 112.919Z" fill="black" fill-opacity="0.2"/>
</g>
<path d="M186.851 86.5514L234.394 113.862L186.834 141.142L139.291 113.832L186.851 86.5514Z" fill="#F84D8E"/>
<path d="M139.28 114.249C139.28 114.071 139.473 113.959 139.628 114.048L186.707 141.092C186.779 141.133 186.824 141.21 186.824 141.293L186.8 195.35C186.8 195.528 186.607 195.64 186.452 195.551L139.373 168.507C139.301 168.466 139.257 168.389 139.257 168.306L139.28 114.249Z" fill="#E256BB"/>
<g filter="url(#filter4_b_269_125)">
<path fill-rule="evenodd" clip-rule="evenodd" d="M186.769 141.295C186.769 141.232 186.735 141.173 186.68 141.141L139.601 114.098C139.482 114.029 139.335 114.115 139.335 114.252L139.311 168.309C139.311 168.372 139.345 168.431 139.4 168.463L186.479 195.506C186.598 195.574 186.745 195.489 186.745 195.352L186.769 141.295ZM186.734 141.047C186.823 141.098 186.878 141.193 186.878 141.296L186.854 195.352C186.854 195.572 186.616 195.71 186.425 195.6L139.346 168.557C139.257 168.506 139.202 168.411 139.202 168.308L139.226 114.252C139.226 114.031 139.464 113.894 139.655 114.003L186.734 141.047Z" fill="white" fill-opacity="0.2"/>
</g>
<path d="M234.393 114.338C234.393 114.133 234.172 114.005 233.994 114.107L186.966 141.082C186.884 141.129 186.833 141.218 186.833 141.313L186.823 195.291C186.823 195.495 187.044 195.624 187.221 195.522L234.249 168.547C234.332 168.5 234.383 168.411 234.383 168.316L234.393 114.338Z" fill="#C32973"/>
<path d="M117.091 127.284L164.635 154.594L117.074 181.875L69.5309 154.564L117.091 127.284Z" fill="#FA4F97"/>
<path d="M69.5186 154.985C69.5187 154.807 69.7116 154.695 69.8663 154.784L116.946 181.828C117.018 181.869 117.062 181.946 117.062 182.029L117.038 236.086C117.038 236.264 116.845 236.376 116.69 236.287L69.6114 209.244C69.5393 209.202 69.4948 209.125 69.4949 209.042L69.5186 154.985Z" fill="#FFA0E5"/>
<g filter="url(#filter5_b_269_125)">
<path fill-rule="evenodd" clip-rule="evenodd" d="M117.008 182.028C117.008 181.964 116.974 181.905 116.918 181.874L69.8393 154.83C69.7208 154.762 69.573 154.847 69.5729 154.984L69.5492 209.041C69.5491 209.105 69.5832 209.163 69.6384 209.195L116.717 236.239C116.836 236.307 116.984 236.221 116.984 236.085L117.008 182.028ZM116.973 181.779C117.062 181.831 117.116 181.925 117.116 182.028L117.092 236.085C117.092 236.305 116.854 236.443 116.663 236.333L69.5843 209.289C69.4953 209.238 69.4405 209.143 69.4406 209.041L69.4643 154.984C69.4644 154.764 69.7025 154.626 69.8934 154.736L116.973 181.779Z" fill="white" fill-opacity="0.2"/>
</g>
<path d="M164.631 155.07C164.631 154.866 164.41 154.738 164.232 154.839L117.205 181.814C117.122 181.862 117.071 181.95 117.071 182.045L117.061 236.023C117.061 236.228 117.282 236.356 117.46 236.254L164.487 209.279C164.57 209.232 164.621 209.144 164.621 209.049L164.631 155.07Z" fill="#C42A74"/>
</g>
<defs>
<filter id="filter0_b_269_125" x="126.84" y="130.422" width="120.005" height="79.8877" filterUnits="userSpaceOnUse" color-interpolation-filters="sRGB">
<feFlood flood-opacity="0" result="BackgroundImageFix"/>
<feGaussianBlur in="BackgroundImageFix" stdDeviation="6.31518"/>
<feComposite in2="SourceAlpha" operator="in" result="effect1_backgroundBlur_269_125"/>
<feBlend mode="normal" in="SourceGraphic" in2="effect1_backgroundBlur_269_125" result="shape"/>
</filter>
<filter id="filter1_b_269_125" x="119.894" y="151.175" width="86.2937" height="120.292" filterUnits="userSpaceOnUse" color-interpolation-filters="sRGB">
<feFlood flood-opacity="0" result="BackgroundImageFix"/>
<feGaussianBlur in="BackgroundImageFix" stdDeviation="9.65448"/>
<feComposite in2="SourceAlpha" operator="in" result="effect1_backgroundBlur_269_125"/>
<feBlend mode="normal" in="SourceGraphic" in2="effect1_backgroundBlur_269_125" result="shape"/>
</filter>
<filter id="filter2_b_269_125" x="70.5524" y="66.5446" width="86.2937" height="120.292" filterUnits="userSpaceOnUse" color-interpolation-filters="sRGB">
<feFlood flood-opacity="0" result="BackgroundImageFix"/>
<feGaussianBlur in="BackgroundImageFix" stdDeviation="9.65448"/>
<feComposite in2="SourceAlpha" operator="in" result="effect1_backgroundBlur_269_125"/>
<feBlend mode="normal" in="SourceGraphic" in2="effect1_backgroundBlur_269_125" result="shape"/>
</filter>
<filter id="filter3_b_269_125" x="133.801" y="82.2819" width="54.9324" height="88.8484" filterUnits="userSpaceOnUse" color-interpolation-filters="sRGB">
<feFlood flood-opacity="0" result="BackgroundImageFix"/>
<feGaussianBlur in="BackgroundImageFix" stdDeviation="1.80927"/>
<feComposite in2="SourceAlpha" operator="in" result="effect1_backgroundBlur_269_125"/>
<feBlend mode="normal" in="SourceGraphic" in2="effect1_backgroundBlur_269_125" result="shape"/>
</filter>
<filter id="filter4_b_269_125" x="119.894" y="94.6559" width="86.2937" height="120.292" filterUnits="userSpaceOnUse" color-interpolation-filters="sRGB">
<feFlood flood-opacity="0" result="BackgroundImageFix"/>
<feGaussianBlur in="BackgroundImageFix" stdDeviation="9.65448"/>
<feComposite in2="SourceAlpha" operator="in" result="effect1_backgroundBlur_269_125"/>
<feBlend mode="normal" in="SourceGraphic" in2="effect1_backgroundBlur_269_125" result="shape"/>
</filter>
<filter id="filter5_b_269_125" x="50.1324" y="135.388" width="86.2937" height="120.292" filterUnits="userSpaceOnUse" color-interpolation-filters="sRGB">
<feFlood flood-opacity="0" result="BackgroundImageFix"/>
<feGaussianBlur in="BackgroundImageFix" stdDeviation="9.65448"/>
<feComposite in2="SourceAlpha" operator="in" result="effect1_backgroundBlur_269_125"/>
<feBlend mode="normal" in="SourceGraphic" in2="effect1_backgroundBlur_269_125" result="shape"/>
</filter>
<clipPath id="clip0_269_125">
<rect width="306" height="306" fill="white"/>
</clipPath>
</defs>
</svg>
