<svg width="220" height="225" viewBox="0 0 220 225" fill="none" xmlns="http://www.w3.org/2000/svg">
<path d="M96.8985 132.585C96.8986 132.407 97.0915 132.295 97.2462 132.384L144.325 159.428C144.397 159.469 144.442 159.546 144.442 159.629L144.418 213.686C144.418 213.864 144.225 213.976 144.07 213.887L96.9912 186.844C96.9192 186.802 96.8747 186.725 96.8748 186.642L96.8985 132.585Z" fill="url(#paint0_linear_10_14218)"/>
<path d="M192.011 132.674C192.011 132.47 191.79 132.342 191.613 132.443L144.585 159.418C144.502 159.466 144.451 159.554 144.451 159.649L144.441 213.627C144.441 213.832 144.662 213.96 144.84 213.858L191.867 186.883C191.95 186.836 192.001 186.748 192.001 186.653L192.011 132.674Z" fill="black" fill-opacity="0.2"/>
<path d="M192.011 132.674C192.011 132.47 191.79 132.342 191.613 132.443L144.585 159.418C144.502 159.466 144.451 159.554 144.451 159.649L144.441 213.627C144.441 213.832 144.662 213.96 144.84 213.858L191.867 186.883C191.95 186.836 192.001 186.748 192.001 186.653L192.011 132.674Z" fill="#C82C77"/>
<path d="M95.1284 20.2564L142.672 47.5667L95.1113 74.8472L47.568 47.5369L95.1284 20.2564Z" fill="url(#paint1_linear_10_14218)"/>
<path d="M47.556 47.9545C47.556 47.7761 47.749 47.6645 47.9037 47.7534L94.9829 74.7971C95.055 74.8385 95.0994 74.9153 95.0994 74.9985L95.0754 129.055C95.0754 129.234 94.8824 129.345 94.7277 129.256L47.6487 102.213C47.5766 102.171 47.5322 102.095 47.5322 102.011L47.556 47.9545Z" fill="url(#paint2_linear_10_14218)"/>
<path d="M144.469 48.3692L192.012 75.6795L144.451 102.96L96.9081 75.6497L144.469 48.3692Z" fill="url(#paint3_linear_10_14218)"/>
<path d="M96.898 76.0673C96.8981 75.8889 97.091 75.7773 97.2457 75.8662L144.325 102.91C144.397 102.951 144.441 103.028 144.441 103.111L144.417 157.168C144.417 157.346 144.224 157.458 144.07 157.369L96.9908 130.326C96.9187 130.284 96.8742 130.207 96.8743 130.124L96.898 76.0673Z" fill="url(#paint4_linear_10_14218)"/>
<path d="M192.011 76.1559C192.011 75.9512 191.79 75.823 191.612 75.9249L144.584 102.9C144.502 102.947 144.451 103.035 144.451 103.131L144.441 157.109C144.441 157.313 144.662 157.442 144.839 157.34L191.867 130.365C191.95 130.317 192.001 130.229 192.001 130.134L192.011 76.1559Z" fill="url(#paint5_linear_10_14218)"/>
<path d="M74.709 89.1021L122.252 116.412L74.6919 143.693L27.1486 116.383L74.709 89.1021Z" fill="url(#paint6_linear_10_14218)"/>
<path d="M27.1365 116.804C27.1366 116.626 27.3295 116.514 27.4842 116.603L74.5634 143.647C74.6355 143.688 74.68 143.765 74.6799 143.848L74.656 197.905C74.6559 198.083 74.463 198.195 74.3083 198.106L27.2293 171.062C27.1572 171.021 27.1128 170.944 27.1128 170.861L27.1365 116.804Z" fill="url(#paint7_linear_10_14218)"/>
<path d="M122.249 116.889C122.249 116.684 122.028 116.556 121.851 116.658L74.8229 143.633C74.7401 143.68 74.6891 143.768 74.6891 143.864L74.6791 197.842C74.6791 198.046 74.9004 198.174 75.0779 198.073L122.105 171.098C122.188 171.05 122.239 170.962 122.239 170.867L122.249 116.889Z" fill="url(#paint8_linear_10_14218)"/>
<defs>
<linearGradient id="paint0_linear_10_14218" x1="137.009" y1="184.147" x2="87.6653" y2="87.1849" gradientUnits="userSpaceOnUse">
<stop stop-color="#DF48B5"/>
<stop offset="1" stop-color="white"/>
</linearGradient>
<linearGradient id="paint1_linear_10_14218" x1="111.894" y1="64.8597" x2="76.9956" y2="27.9297" gradientUnits="userSpaceOnUse">
<stop stop-color="#FF56D0"/>
<stop offset="1" stop-color="#F04242"/>
</linearGradient>
<linearGradient id="paint2_linear_10_14218" x1="87.6665" y1="99.5163" x2="64.7165" y2="45.9663" gradientUnits="userSpaceOnUse">
<stop stop-color="#FF86DD"/>
<stop offset="1" stop-color="white"/>
</linearGradient>
<linearGradient id="paint3_linear_10_14218" x1="161.235" y1="92.9725" x2="126.336" y2="56.0425" gradientUnits="userSpaceOnUse">
<stop stop-color="#FF56D0"/>
<stop offset="1" stop-color="#F04242"/>
</linearGradient>
<linearGradient id="paint4_linear_10_14218" x1="137.009" y1="127.629" x2="87.6649" y2="30.6669" gradientUnits="userSpaceOnUse">
<stop stop-color="#DF48B5"/>
<stop offset="1" stop-color="white"/>
</linearGradient>
<linearGradient id="paint5_linear_10_14218" x1="149.518" y1="97.9126" x2="156.516" y2="164.543" gradientUnits="userSpaceOnUse">
<stop stop-color="#C82C77"/>
<stop offset="1" stop-color="#B31F66"/>
</linearGradient>
<linearGradient id="paint6_linear_10_14218" x1="91.475" y1="133.705" x2="56.5762" y2="96.7754" gradientUnits="userSpaceOnUse">
<stop stop-color="#FF56D0"/>
<stop offset="1" stop-color="#F04242"/>
</linearGradient>
<linearGradient id="paint7_linear_10_14218" x1="67.247" y1="168.366" x2="44.297" y2="114.816" gradientUnits="userSpaceOnUse">
<stop stop-color="#FF86DD"/>
<stop offset="1" stop-color="white"/>
</linearGradient>
<linearGradient id="paint8_linear_10_14218" x1="79.7563" y1="138.646" x2="86.754" y2="205.276" gradientUnits="userSpaceOnUse">
<stop stop-color="#C82C77"/>
<stop offset="1" stop-color="#B31F66"/>
</linearGradient>
</defs>
</svg>
