<svg width="73" height="73" viewBox="0 0 73 73" fill="none" xmlns="http://www.w3.org/2000/svg">
<g clip-path="url(#clip0_24_1435)">
<g filter="url(#filter0_ii_24_1435)">
<rect x="0.703125" width="72.2882" height="72.2882" rx="36.1441" fill="url(#paint0_linear_24_1435)"/>
</g>
<path d="M0.703125 10.1104C1.50913 10.1104 49.2311 10.1104 72.9913 10.1104" stroke="white" stroke-opacity="0.41" stroke-width="0.505512"/>
<path d="M0.703125 23.7588C1.50913 23.7588 49.2311 23.7588 72.9913 23.7588" stroke="white" stroke-opacity="0.41" stroke-width="0.505512"/>
<path d="M0.703125 37.9136C1.50913 37.9136 49.2311 37.9136 72.9913 37.9136" stroke="white" stroke-opacity="0.41" stroke-width="0.505512"/>
<path d="M0.703125 51.562C1.50913 51.562 49.2311 51.562 72.9913 51.562" stroke="white" stroke-opacity="0.41" stroke-width="0.505512"/>
<path d="M0.703125 65.2109C1.50913 65.2109 49.2311 65.2109 72.9913 65.2109" stroke="white" stroke-opacity="0.41" stroke-width="0.505512"/>
<path d="M9.29688 72.2881C9.29687 71.4821 9.29687 23.7601 9.29687 -0.000102699" stroke="white" stroke-opacity="0.41" stroke-width="0.505512"/>
<path d="M22.9458 72.2881C22.9458 71.4821 22.9458 23.7601 22.9458 -0.000102699" stroke="white" stroke-opacity="0.41" stroke-width="0.505512"/>
<path d="M37.1001 72.2881C37.1001 71.4821 37.1001 23.7601 37.1001 -0.000102699" stroke="white" stroke-opacity="0.41" stroke-width="0.505512"/>
<path d="M50.749 72.2881C50.749 71.4821 50.749 23.7601 50.749 -0.000102699" stroke="white" stroke-opacity="0.41" stroke-width="0.505512"/>
<path d="M64.3975 72.2881C64.3975 71.4821 64.3975 23.7601 64.3975 -0.000102699" stroke="white" stroke-opacity="0.41" stroke-width="0.505512"/>
<g clip-path="url(#clip1_24_1435)">
<g clip-path="url(#clip2_24_1435)">
<path d="M47.2515 25.9282C47.2302 25.7727 47.0944 25.6865 46.9816 25.6771C46.8698 25.6677 44.6781 25.6344 44.6781 25.6344C44.6781 25.6344 42.8451 23.8544 42.664 23.6733C42.483 23.4922 42.1293 23.5469 41.9918 23.5879C41.9901 23.5887 41.6476 23.6946 41.0711 23.8732C40.9746 23.5605 40.8328 23.1762 40.6303 22.7901C39.9778 21.5448 39.022 20.8863 37.8672 20.8846C37.8655 20.8846 37.8647 20.8846 37.863 20.8846C37.7827 20.8846 37.7032 20.8923 37.623 20.8991C37.5888 20.8581 37.5546 20.8179 37.5188 20.7787C37.0157 20.2406 36.3708 19.9783 35.5978 20.0014C34.1065 20.0441 32.6212 21.1212 31.4169 23.0344C30.5696 24.3805 29.9247 26.0717 29.742 27.3811C28.0294 27.9115 26.8319 28.2821 26.8055 28.2907C25.9411 28.5623 25.9137 28.5888 25.801 29.4036C25.7173 30.0194 23.4556 47.5086 23.4556 47.5086L42.4095 50.7867L50.6245 48.7445C50.6245 48.7445 47.2729 26.0837 47.2515 25.9282ZM40.1221 24.167C39.6857 24.3019 39.1894 24.4557 38.6513 24.6222C38.6402 23.8672 38.5505 22.8166 38.1986 21.9087C39.3304 22.1231 39.8872 23.4034 40.1221 24.167ZM37.6597 24.9297C36.6663 25.2372 35.5824 25.5729 34.4952 25.9094C34.8009 24.7384 35.3809 23.5725 36.0932 22.8081C36.358 22.5236 36.7287 22.2068 37.1677 22.0257C37.5802 22.8866 37.6699 24.1055 37.6597 24.9297ZM35.6277 20.9939C35.9779 20.9862 36.2726 21.0631 36.5246 21.2288C36.1214 21.438 35.7319 21.7387 35.3664 22.1307C34.4191 23.1471 33.6931 24.7247 33.4036 26.2468C32.5007 26.5261 31.6176 26.8003 30.8045 27.0514C31.3178 24.6555 33.3258 21.0605 35.6277 20.9939Z" fill="#95BF47"/>
<path d="M46.9823 25.678C46.8704 25.6686 44.6787 25.6353 44.6787 25.6353C44.6787 25.6353 42.8458 23.8552 42.6647 23.6742C42.5972 23.6067 42.5059 23.5717 42.4102 23.5572L42.411 50.7859L50.6252 48.7445C50.6252 48.7445 47.2736 26.0845 47.2522 25.9291C47.2308 25.7736 47.0942 25.6873 46.9823 25.678Z" fill="#5E8E3E"/>
<path d="M37.8567 29.9016L36.9027 33.471C36.9027 33.471 35.8384 32.9867 34.5769 33.0662C32.7268 33.1832 32.7072 34.3499 32.726 34.6429C32.8268 36.2392 37.0265 36.5877 37.2623 40.3271C37.4476 43.2687 35.7017 45.281 33.1864 45.4399C30.167 45.6304 28.5049 43.8495 28.5049 43.8495L29.1446 41.1283C29.1446 41.1283 30.8178 42.3907 32.1571 42.3061C33.0318 42.2506 33.3444 41.5391 33.3127 41.036C33.1812 38.9537 29.7613 39.0766 29.5452 35.655C29.3633 32.7758 31.2543 29.8581 35.4267 29.595C37.0342 29.4917 37.8567 29.9016 37.8567 29.9016Z" fill="white"/>
</g>
</g>
</g>
<g clip-path="url(#clip3_24_1435)">
<g filter="url(#filter1_ii_24_1435)">
<rect x="0.703125" width="72.2882" height="72.2882" rx="36.1441" fill="url(#paint1_linear_24_1435)"/>
</g>
<path d="M0.703125 10.1104C1.50913 10.1104 49.2311 10.1104 72.9913 10.1104" stroke="white" stroke-opacity="0.41" stroke-width="0.505512"/>
<path d="M0.703125 23.7588C1.50913 23.7588 49.2311 23.7588 72.9913 23.7588" stroke="white" stroke-opacity="0.41" stroke-width="0.505512"/>
<path d="M0.703125 37.9136C1.50913 37.9136 49.2311 37.9136 72.9913 37.9136" stroke="white" stroke-opacity="0.41" stroke-width="0.505512"/>
<path d="M0.703125 51.562C1.50913 51.562 49.2311 51.562 72.9913 51.562" stroke="white" stroke-opacity="0.41" stroke-width="0.505512"/>
<path d="M0.703125 65.2109C1.50913 65.2109 49.2311 65.2109 72.9913 65.2109" stroke="white" stroke-opacity="0.41" stroke-width="0.505512"/>
<path d="M9.29688 72.2881C9.29687 71.4821 9.29687 23.7601 9.29687 -0.000102699" stroke="white" stroke-opacity="0.41" stroke-width="0.505512"/>
<path d="M22.9458 72.2881C22.9458 71.4821 22.9458 23.7601 22.9458 -0.000102699" stroke="white" stroke-opacity="0.41" stroke-width="0.505512"/>
<path d="M37.1001 72.2881C37.1001 71.4821 37.1001 23.7601 37.1001 -0.000102699" stroke="white" stroke-opacity="0.41" stroke-width="0.505512"/>
<path d="M50.749 72.2881C50.749 71.4821 50.749 23.7601 50.749 -0.000102699" stroke="white" stroke-opacity="0.41" stroke-width="0.505512"/>
<path d="M64.3975 72.2881C64.3975 71.4821 64.3975 23.7601 64.3975 -0.000102699" stroke="white" stroke-opacity="0.41" stroke-width="0.505512"/>
<g clip-path="url(#clip4_24_1435)">
<g clip-path="url(#clip5_24_1435)">
<path d="M37.3384 37.8191H41.2867C42.4096 37.8191 43.12 37.2013 43.12 36.2085C43.12 35.2724 42.4096 34.598 41.2867 34.598H37.3384C37.2076 34.598 37.0957 34.71 37.0957 34.8232V37.5939C37.1133 37.7247 37.2064 37.8191 37.3384 37.8191ZM37.3384 44.2033H41.4175C42.6711 44.2033 43.4193 43.5666 43.4193 42.443C43.4193 41.4692 42.7088 40.6828 41.4175 40.6828H37.3384C37.2076 40.6828 37.0957 40.7948 37.0957 40.908V43.9605C37.1133 44.1102 37.2064 44.2033 37.3384 44.2033Z" fill="#34313F"/>
<path d="M51.7836 20.0695L40.1072 31.7157H42.016C44.991 31.7157 46.7502 33.5879 46.7502 35.6288C46.7502 37.2393 45.665 38.4183 44.5044 38.943C44.3171 39.0185 44.3171 39.2802 44.5233 39.3544C45.87 39.8791 46.8244 41.2833 46.8244 42.9303C46.8244 45.2517 45.2714 47.1051 42.2586 47.1051H33.9886C33.8578 47.1051 33.7459 46.9931 33.7459 46.8799V38.0609L20.9277 50.832C20.7592 51.0006 20.8711 51.3001 21.1151 51.3001H51.9333C52.0452 51.3001 52.1395 51.207 52.1395 51.0937V20.2381C52.1948 20.0317 51.9333 19.9197 51.7836 20.0695Z" fill="#34313F"/>
</g>
</g>
</g>
<defs>
<filter id="filter0_ii_24_1435" x="0.197613" y="-0.505512" width="73.2991" height="73.2992" filterUnits="userSpaceOnUse" color-interpolation-filters="sRGB">
<feFlood flood-opacity="0" result="BackgroundImageFix"/>
<feBlend mode="normal" in="SourceGraphic" in2="BackgroundImageFix" result="shape"/>
<feColorMatrix in="SourceAlpha" type="matrix" values="0 0 0 0 0 0 0 0 0 0 0 0 0 0 0 0 0 0 127 0" result="hardAlpha"/>
<feOffset dx="-0.505512" dy="-0.505512"/>
<feGaussianBlur stdDeviation="0.758268"/>
<feComposite in2="hardAlpha" operator="arithmetic" k2="-1" k3="1"/>
<feColorMatrix type="matrix" values="0 0 0 0 0 0 0 0 0 0 0 0 0 0 0 0 0 0 0.33 0"/>
<feBlend mode="normal" in2="shape" result="effect1_innerShadow_24_1435"/>
<feColorMatrix in="SourceAlpha" type="matrix" values="0 0 0 0 0 0 0 0 0 0 0 0 0 0 0 0 0 0 127 0" result="hardAlpha"/>
<feMorphology radius="1.01102" operator="erode" in="SourceAlpha" result="effect2_innerShadow_24_1435"/>
<feOffset dx="0.505512" dy="0.505512"/>
<feGaussianBlur stdDeviation="0.758268"/>
<feComposite in2="hardAlpha" operator="arithmetic" k2="-1" k3="1"/>
<feColorMatrix type="matrix" values="0 0 0 0 1 0 0 0 0 1 0 0 0 0 1 0 0 0 0.65 0"/>
<feBlend mode="normal" in2="effect1_innerShadow_24_1435" result="effect2_innerShadow_24_1435"/>
</filter>
<filter id="filter1_ii_24_1435" x="0.197613" y="-0.505512" width="73.2991" height="73.2992" filterUnits="userSpaceOnUse" color-interpolation-filters="sRGB">
<feFlood flood-opacity="0" result="BackgroundImageFix"/>
<feBlend mode="normal" in="SourceGraphic" in2="BackgroundImageFix" result="shape"/>
<feColorMatrix in="SourceAlpha" type="matrix" values="0 0 0 0 0 0 0 0 0 0 0 0 0 0 0 0 0 0 127 0" result="hardAlpha"/>
<feOffset dx="-0.505512" dy="-0.505512"/>
<feGaussianBlur stdDeviation="0.758268"/>
<feComposite in2="hardAlpha" operator="arithmetic" k2="-1" k3="1"/>
<feColorMatrix type="matrix" values="0 0 0 0 0 0 0 0 0 0 0 0 0 0 0 0 0 0 0.33 0"/>
<feBlend mode="normal" in2="shape" result="effect1_innerShadow_24_1435"/>
<feColorMatrix in="SourceAlpha" type="matrix" values="0 0 0 0 0 0 0 0 0 0 0 0 0 0 0 0 0 0 127 0" result="hardAlpha"/>
<feMorphology radius="1.01102" operator="erode" in="SourceAlpha" result="effect2_innerShadow_24_1435"/>
<feOffset dx="0.505512" dy="0.505512"/>
<feGaussianBlur stdDeviation="0.758268"/>
<feComposite in2="hardAlpha" operator="arithmetic" k2="-1" k3="1"/>
<feColorMatrix type="matrix" values="0 0 0 0 1 0 0 0 0 1 0 0 0 0 1 0 0 0 0.65 0"/>
<feBlend mode="normal" in2="effect1_innerShadow_24_1435" result="effect2_innerShadow_24_1435"/>
</filter>
<linearGradient id="paint0_linear_24_1435" x1="2.07885" y1="-28.5151" x2="36.8472" y2="72.2882" gradientUnits="userSpaceOnUse">
<stop stop-color="white"/>
<stop offset="1" stop-color="#DADADA"/>
</linearGradient>
<linearGradient id="paint1_linear_24_1435" x1="2.07885" y1="-28.5151" x2="36.8472" y2="72.2882" gradientUnits="userSpaceOnUse">
<stop stop-color="white"/>
<stop offset="1" stop-color="#DADADA"/>
</linearGradient>
<clipPath id="clip0_24_1435">
<rect x="0.703125" width="72.2882" height="72.2882" rx="36.1441" fill="white"/>
</clipPath>
<clipPath id="clip1_24_1435">
<rect width="31.2998" height="31.2998" fill="white" transform="translate(20.8472 20)"/>
</clipPath>
<clipPath id="clip2_24_1435">
<rect width="27.1949" height="31.2998" fill="white" transform="translate(23.4556 20)"/>
</clipPath>
<clipPath id="clip3_24_1435">
<rect x="0.703125" width="72.2882" height="72.2882" rx="36.1441" fill="white"/>
</clipPath>
<clipPath id="clip4_24_1435">
<rect width="31.2998" height="31.2998" fill="white" transform="translate(20.8472 20)"/>
</clipPath>
<clipPath id="clip5_24_1435">
<rect width="31.2998" height="31.2998" fill="white" transform="translate(20.8472 20)"/>
</clipPath>
</defs>
</svg>
