<svg width="73" height="73" viewBox="0 0 73 73" fill="none" xmlns="http://www.w3.org/2000/svg">
<g clip-path="url(#clip0_24_1694)">
<g filter="url(#filter0_ii_24_1694)">
<rect x="0.720703" width="72.2882" height="72.2882" rx="36.1441" fill="url(#paint0_linear_24_1694)"/>
</g>
<path d="M0.720703 10.1104C1.5267 10.1104 49.2487 10.1104 73.0089 10.1104" stroke="white" stroke-opacity="0.41" stroke-width="0.505512"/>
<path d="M0.720703 23.7588C1.5267 23.7588 49.2487 23.7588 73.0089 23.7588" stroke="white" stroke-opacity="0.41" stroke-width="0.505512"/>
<path d="M0.720703 37.9136C1.5267 37.9136 49.2487 37.9136 73.0089 37.9136" stroke="white" stroke-opacity="0.41" stroke-width="0.505512"/>
<path d="M0.720703 51.562C1.5267 51.562 49.2487 51.562 73.0089 51.562" stroke="white" stroke-opacity="0.41" stroke-width="0.505512"/>
<path d="M0.720703 65.2109C1.5267 65.2109 49.2487 65.2109 73.0089 65.2109" stroke="white" stroke-opacity="0.41" stroke-width="0.505512"/>
<path d="M9.31445 72.2881C9.31445 71.4821 9.31445 23.7601 9.31445 -0.000102699" stroke="white" stroke-opacity="0.41" stroke-width="0.505512"/>
<path d="M22.9634 72.2881C22.9634 71.4821 22.9634 23.7601 22.9634 -0.000102699" stroke="white" stroke-opacity="0.41" stroke-width="0.505512"/>
<path d="M37.1177 72.2881C37.1177 71.4821 37.1177 23.7601 37.1177 -0.000102699" stroke="white" stroke-opacity="0.41" stroke-width="0.505512"/>
<path d="M50.7666 72.2881C50.7666 71.4821 50.7666 23.7601 50.7666 -0.000102699" stroke="white" stroke-opacity="0.41" stroke-width="0.505512"/>
<path d="M64.415 72.2881C64.415 71.4821 64.415 23.7601 64.415 -0.000102699" stroke="white" stroke-opacity="0.41" stroke-width="0.505512"/>
<g clip-path="url(#clip1_24_1694)">
<g clip-path="url(#clip2_24_1694)">
<path d="M47.2691 25.9282C47.2478 25.7727 47.1119 25.6865 46.9992 25.6771C46.8874 25.6677 44.6956 25.6344 44.6956 25.6344C44.6956 25.6344 42.8627 23.8544 42.6816 23.6733C42.5006 23.4922 42.1469 23.5469 42.0094 23.5879C42.0077 23.5887 41.6652 23.6946 41.0887 23.8732C40.9922 23.5605 40.8503 23.1762 40.6479 22.7901C39.9954 21.5448 39.0396 20.8863 37.8848 20.8846C37.8831 20.8846 37.8822 20.8846 37.8805 20.8846C37.8002 20.8846 37.7208 20.8923 37.6406 20.8991C37.6064 20.8581 37.5722 20.8179 37.5364 20.7787C37.0332 20.2406 36.3884 19.9783 35.6154 20.0014C34.1241 20.0441 32.6388 21.1212 31.4345 23.0344C30.5872 24.3805 29.9423 26.0717 29.7595 27.3811C28.047 27.9115 26.8495 28.2821 26.823 28.2907C25.9587 28.5623 25.9313 28.5888 25.8186 29.4036C25.7349 30.0194 23.4731 47.5086 23.4731 47.5086L42.4271 50.7867L50.642 48.7445C50.642 48.7445 47.2905 26.0837 47.2691 25.9282ZM40.1397 24.167C39.7033 24.3019 39.207 24.4557 38.6689 24.6222C38.6578 23.8672 38.5681 22.8166 38.2162 21.9087C39.3479 22.1231 39.9048 23.4034 40.1397 24.167ZM37.6773 24.9297C36.6839 25.2372 35.6 25.5729 34.5127 25.9094C34.8185 24.7384 35.3985 23.5725 36.1108 22.8081C36.3756 22.5236 36.7463 22.2068 37.1853 22.0257C37.5978 22.8866 37.6875 24.1055 37.6773 24.9297ZM35.6453 20.9939C35.9955 20.9862 36.2902 21.0631 36.5421 21.2288C36.139 21.438 35.7495 21.7387 35.384 22.1307C34.4367 23.1471 33.7107 24.7247 33.4211 26.2468C32.5183 26.5261 31.6352 26.8003 30.822 27.0514C31.3354 24.6555 33.3434 21.0605 35.6453 20.9939Z" fill="#95BF47"/>
<path d="M46.9999 25.678C46.888 25.6686 44.6963 25.6353 44.6963 25.6353C44.6963 25.6353 42.8634 23.8552 42.6823 23.6742C42.6148 23.6067 42.5234 23.5717 42.4277 23.5572L42.4286 50.7859L50.6428 48.7445C50.6428 48.7445 47.2912 26.0845 47.2698 25.9291C47.2484 25.7736 47.1118 25.6873 46.9999 25.678Z" fill="#5E8E3E"/>
<path d="M37.8743 29.9016L36.9203 33.471C36.9203 33.471 35.856 32.9867 34.5945 33.0662C32.7444 33.1832 32.7247 34.3499 32.7436 34.6429C32.8444 36.2392 37.0441 36.5877 37.2798 40.3271C37.4652 43.2687 35.7193 45.281 33.2039 45.4399C30.1846 45.6304 28.5225 43.8495 28.5225 43.8495L29.1622 41.1283C29.1622 41.1283 30.8354 42.3907 32.1747 42.3061C33.0493 42.2506 33.3619 41.5391 33.3303 41.036C33.1988 38.9537 29.7789 39.0766 29.5628 35.655C29.3809 32.7758 31.2719 29.8581 35.4443 29.595C37.0518 29.4917 37.8743 29.9016 37.8743 29.9016Z" fill="white"/>
</g>
</g>
</g>
<g clip-path="url(#clip3_24_1694)">
<g filter="url(#filter1_ii_24_1694)">
<rect x="0.720703" width="72.2882" height="72.2882" rx="36.1441" fill="url(#paint1_linear_24_1694)"/>
</g>
<path d="M0.720703 10.1104C1.5267 10.1104 49.2487 10.1104 73.0089 10.1104" stroke="white" stroke-opacity="0.41" stroke-width="0.505512"/>
<path d="M0.720703 23.7588C1.5267 23.7588 49.2487 23.7588 73.0089 23.7588" stroke="white" stroke-opacity="0.41" stroke-width="0.505512"/>
<path d="M0.720703 37.9136C1.5267 37.9136 49.2487 37.9136 73.0089 37.9136" stroke="white" stroke-opacity="0.41" stroke-width="0.505512"/>
<path d="M0.720703 51.562C1.5267 51.562 49.2487 51.562 73.0089 51.562" stroke="white" stroke-opacity="0.41" stroke-width="0.505512"/>
<path d="M0.720703 65.2109C1.5267 65.2109 49.2487 65.2109 73.0089 65.2109" stroke="white" stroke-opacity="0.41" stroke-width="0.505512"/>
<path d="M9.31445 72.2881C9.31445 71.4821 9.31445 23.7601 9.31445 -0.000102699" stroke="white" stroke-opacity="0.41" stroke-width="0.505512"/>
<path d="M22.9634 72.2881C22.9634 71.4821 22.9634 23.7601 22.9634 -0.000102699" stroke="white" stroke-opacity="0.41" stroke-width="0.505512"/>
<path d="M37.1177 72.2881C37.1177 71.4821 37.1177 23.7601 37.1177 -0.000102699" stroke="white" stroke-opacity="0.41" stroke-width="0.505512"/>
<path d="M50.7666 72.2881C50.7666 71.4821 50.7666 23.7601 50.7666 -0.000102699" stroke="white" stroke-opacity="0.41" stroke-width="0.505512"/>
<path d="M64.415 72.2881C64.415 71.4821 64.415 23.7601 64.415 -0.000102699" stroke="white" stroke-opacity="0.41" stroke-width="0.505512"/>
<g clip-path="url(#clip4_24_1694)">
<rect x="20.8647" y="20" width="31.2998" height="31.2998" rx="3.78973" fill="#0074FF"/>
<path fill-rule="evenodd" clip-rule="evenodd" d="M39.2143 28.9675C38.4214 28.268 37.3955 27.825 35.5537 27.825H30.0049V44.1451H36.3695C38.468 44.1451 39.7269 43.5853 40.6362 42.6759C41.1068 42.2181 41.4812 41.6709 41.7374 41.0664C41.9937 40.4619 42.1266 39.8123 42.1283 39.1557C42.1283 37.338 41.1258 35.7057 39.6803 34.983C40.2167 34.4232 40.7295 33.3273 40.7295 32.2548C40.7275 31.6302 40.5912 31.0134 40.3297 30.4462C40.0682 29.879 39.6878 29.3747 39.2143 28.9675ZM35.3672 34.12H33.1525V30.6214H35.3672C36.3465 30.6214 36.7894 30.8548 37.1158 31.205C37.4152 31.5192 37.5822 31.9366 37.5822 32.3707C37.5822 32.8047 37.4152 33.2222 37.1158 33.5364C36.7894 33.8866 36.3465 34.12 35.3672 34.12ZM36.3 41.3474C37.3957 41.3474 38.0019 41.0676 38.3983 40.6247C38.7731 40.2182 38.9813 39.6855 38.9813 39.1326C38.9813 38.5796 38.7731 38.0469 38.3983 37.6405C38.0019 37.1974 37.3957 36.9177 36.3 36.9177H33.1525V41.3474H36.3ZM45.1317 40.9953C44.8503 40.7986 44.517 40.6894 44.1737 40.6812C43.9413 40.6763 43.7102 40.7178 43.494 40.8032C43.2778 40.8886 43.0808 41.0162 42.9144 41.1786C42.7481 41.341 42.6158 41.535 42.5253 41.7491C42.4348 41.9632 42.3878 42.1932 42.3872 42.4257C42.3872 42.7691 42.4885 43.1048 42.6784 43.3909C42.8683 43.677 43.1384 43.9007 43.4548 44.034C43.7713 44.1673 44.1201 44.2043 44.4574 44.1403C44.7948 44.0763 45.1058 43.9142 45.3515 43.6743C45.5972 43.4344 45.7666 43.1274 45.8386 42.7916C45.9106 42.4559 45.8819 42.1063 45.7562 41.7868C45.6304 41.4673 45.4132 41.1919 45.1317 40.9953Z" fill="white"/>
</g>
</g>
<defs>
<filter id="filter0_ii_24_1694" x="0.215191" y="-0.505512" width="73.2991" height="73.2992" filterUnits="userSpaceOnUse" color-interpolation-filters="sRGB">
<feFlood flood-opacity="0" result="BackgroundImageFix"/>
<feBlend mode="normal" in="SourceGraphic" in2="BackgroundImageFix" result="shape"/>
<feColorMatrix in="SourceAlpha" type="matrix" values="0 0 0 0 0 0 0 0 0 0 0 0 0 0 0 0 0 0 127 0" result="hardAlpha"/>
<feOffset dx="-0.505512" dy="-0.505512"/>
<feGaussianBlur stdDeviation="0.758268"/>
<feComposite in2="hardAlpha" operator="arithmetic" k2="-1" k3="1"/>
<feColorMatrix type="matrix" values="0 0 0 0 0 0 0 0 0 0 0 0 0 0 0 0 0 0 0.33 0"/>
<feBlend mode="normal" in2="shape" result="effect1_innerShadow_24_1694"/>
<feColorMatrix in="SourceAlpha" type="matrix" values="0 0 0 0 0 0 0 0 0 0 0 0 0 0 0 0 0 0 127 0" result="hardAlpha"/>
<feMorphology radius="1.01102" operator="erode" in="SourceAlpha" result="effect2_innerShadow_24_1694"/>
<feOffset dx="0.505512" dy="0.505512"/>
<feGaussianBlur stdDeviation="0.758268"/>
<feComposite in2="hardAlpha" operator="arithmetic" k2="-1" k3="1"/>
<feColorMatrix type="matrix" values="0 0 0 0 1 0 0 0 0 1 0 0 0 0 1 0 0 0 0.65 0"/>
<feBlend mode="normal" in2="effect1_innerShadow_24_1694" result="effect2_innerShadow_24_1694"/>
</filter>
<filter id="filter1_ii_24_1694" x="0.215191" y="-0.505512" width="73.2991" height="73.2992" filterUnits="userSpaceOnUse" color-interpolation-filters="sRGB">
<feFlood flood-opacity="0" result="BackgroundImageFix"/>
<feBlend mode="normal" in="SourceGraphic" in2="BackgroundImageFix" result="shape"/>
<feColorMatrix in="SourceAlpha" type="matrix" values="0 0 0 0 0 0 0 0 0 0 0 0 0 0 0 0 0 0 127 0" result="hardAlpha"/>
<feOffset dx="-0.505512" dy="-0.505512"/>
<feGaussianBlur stdDeviation="0.758268"/>
<feComposite in2="hardAlpha" operator="arithmetic" k2="-1" k3="1"/>
<feColorMatrix type="matrix" values="0 0 0 0 0 0 0 0 0 0 0 0 0 0 0 0 0 0 0.33 0"/>
<feBlend mode="normal" in2="shape" result="effect1_innerShadow_24_1694"/>
<feColorMatrix in="SourceAlpha" type="matrix" values="0 0 0 0 0 0 0 0 0 0 0 0 0 0 0 0 0 0 127 0" result="hardAlpha"/>
<feMorphology radius="1.01102" operator="erode" in="SourceAlpha" result="effect2_innerShadow_24_1694"/>
<feOffset dx="0.505512" dy="0.505512"/>
<feGaussianBlur stdDeviation="0.758268"/>
<feComposite in2="hardAlpha" operator="arithmetic" k2="-1" k3="1"/>
<feColorMatrix type="matrix" values="0 0 0 0 1 0 0 0 0 1 0 0 0 0 1 0 0 0 0.65 0"/>
<feBlend mode="normal" in2="effect1_innerShadow_24_1694" result="effect2_innerShadow_24_1694"/>
</filter>
<linearGradient id="paint0_linear_24_1694" x1="2.09643" y1="-28.5151" x2="36.8648" y2="72.2882" gradientUnits="userSpaceOnUse">
<stop stop-color="white"/>
<stop offset="1" stop-color="#DADADA"/>
</linearGradient>
<linearGradient id="paint1_linear_24_1694" x1="2.09643" y1="-28.5151" x2="36.8648" y2="72.2882" gradientUnits="userSpaceOnUse">
<stop stop-color="white"/>
<stop offset="1" stop-color="#DADADA"/>
</linearGradient>
<clipPath id="clip0_24_1694">
<rect x="0.720703" width="72.2882" height="72.2882" rx="36.1441" fill="white"/>
</clipPath>
<clipPath id="clip1_24_1694">
<rect width="31.2998" height="31.2998" fill="white" transform="translate(20.8647 20)"/>
</clipPath>
<clipPath id="clip2_24_1694">
<rect width="27.1949" height="31.2998" fill="white" transform="translate(23.4731 20)"/>
</clipPath>
<clipPath id="clip3_24_1694">
<rect x="0.720703" width="72.2882" height="72.2882" rx="36.1441" fill="white"/>
</clipPath>
<clipPath id="clip4_24_1694">
<rect width="31.2998" height="31.2998" fill="white" transform="translate(20.8647 20)"/>
</clipPath>
</defs>
</svg>
