<svg width="73" height="73" viewBox="0 0 73 73" fill="none" xmlns="http://www.w3.org/2000/svg">
<g clip-path="url(#clip0_24_1546)">
<g filter="url(#filter0_ii_24_1546)">
<rect x="0.567871" width="72.2882" height="72.2882" rx="36.1441" fill="url(#paint0_linear_24_1546)"/>
</g>
<path d="M0.567871 10.1104C1.37387 10.1104 49.0958 10.1104 72.8561 10.1104" stroke="white" stroke-opacity="0.41" stroke-width="0.505512"/>
<path d="M0.567871 23.7588C1.37387 23.7588 49.0958 23.7588 72.8561 23.7588" stroke="white" stroke-opacity="0.41" stroke-width="0.505512"/>
<path d="M0.567871 37.9136C1.37387 37.9136 49.0958 37.9136 72.8561 37.9136" stroke="white" stroke-opacity="0.41" stroke-width="0.505512"/>
<path d="M0.567871 51.562C1.37387 51.562 49.0958 51.562 72.8561 51.562" stroke="white" stroke-opacity="0.41" stroke-width="0.505512"/>
<path d="M0.567871 65.2109C1.37387 65.2109 49.0958 65.2109 72.8561 65.2109" stroke="white" stroke-opacity="0.41" stroke-width="0.505512"/>
<path d="M9.16162 72.2881C9.16162 71.4821 9.16162 23.7601 9.16162 -0.000102699" stroke="white" stroke-opacity="0.41" stroke-width="0.505512"/>
<path d="M22.8105 72.2881C22.8105 71.4821 22.8105 23.7601 22.8105 -0.000102699" stroke="white" stroke-opacity="0.41" stroke-width="0.505512"/>
<path d="M36.9648 72.2881C36.9648 71.4821 36.9648 23.7601 36.9648 -0.000102699" stroke="white" stroke-opacity="0.41" stroke-width="0.505512"/>
<path d="M50.6138 72.2881C50.6138 71.4821 50.6138 23.7601 50.6138 -0.000102699" stroke="white" stroke-opacity="0.41" stroke-width="0.505512"/>
<path d="M64.2622 72.2881C64.2622 71.4821 64.2622 23.7601 64.2622 -0.000102699" stroke="white" stroke-opacity="0.41" stroke-width="0.505512"/>
<g clip-path="url(#clip1_24_1546)">
<g clip-path="url(#clip2_24_1546)">
<path d="M47.1163 25.9282C47.0949 25.7727 46.9591 25.6865 46.8464 25.6771C46.7345 25.6677 44.5428 25.6344 44.5428 25.6344C44.5428 25.6344 42.7098 23.8544 42.5287 23.6733C42.3477 23.4922 41.9941 23.5469 41.8566 23.5879C41.8549 23.5887 41.5124 23.6946 40.9358 23.8732C40.8393 23.5605 40.6975 23.1762 40.4951 22.7901C39.8426 21.5448 38.8868 20.8863 37.732 20.8846C37.7303 20.8846 37.7294 20.8846 37.7277 20.8846C37.6474 20.8846 37.568 20.8923 37.4877 20.8991C37.4536 20.8581 37.4194 20.8179 37.3835 20.7787C36.8804 20.2406 36.2356 19.9783 35.4626 20.0014C33.9713 20.0441 32.486 21.1212 31.2816 23.0344C30.4343 24.3805 29.7895 26.0717 29.6067 27.3811C27.8942 27.9115 26.6967 28.2821 26.6702 28.2907C25.8058 28.5623 25.7785 28.5888 25.6657 29.4036C25.582 30.0194 23.3203 47.5086 23.3203 47.5086L42.2742 50.7867L50.4892 48.7445C50.4892 48.7445 47.1376 26.0837 47.1163 25.9282ZM39.9869 24.167C39.5504 24.3019 39.0542 24.4557 38.5161 24.6222C38.505 23.8672 38.4153 22.8166 38.0634 21.9087C39.1951 22.1231 39.752 23.4034 39.9869 24.167ZM37.5244 24.9297C36.5311 25.2372 35.4472 25.5729 34.3599 25.9094C34.6657 24.7384 35.2456 23.5725 35.958 22.8081C36.2228 22.5236 36.5934 22.2068 37.0324 22.0257C37.445 22.8866 37.5347 24.1055 37.5244 24.9297ZM35.4924 20.9939C35.8426 20.9862 36.1373 21.0631 36.3893 21.2288C35.9862 21.438 35.5967 21.7387 35.2311 22.1307C34.2839 23.1471 33.5579 24.7247 33.2683 26.2468C32.3655 26.5261 31.4823 26.8003 30.6692 27.0514C31.1826 24.6555 33.1906 21.0605 35.4924 20.9939Z" fill="#95BF47"/>
<path d="M46.847 25.678C46.7352 25.6686 44.5435 25.6353 44.5435 25.6353C44.5435 25.6353 42.7105 23.8552 42.5295 23.6742C42.462 23.6067 42.3706 23.5717 42.2749 23.5572L42.2758 50.7859L50.4899 48.7445C50.4899 48.7445 47.1383 26.0845 47.117 25.9291C47.0956 25.7736 46.9589 25.6873 46.847 25.678Z" fill="#5E8E3E"/>
<path d="M37.7215 29.9016L36.7674 33.471C36.7674 33.471 35.7032 32.9867 34.4416 33.0662C32.5916 33.1832 32.5719 34.3499 32.5907 34.6429C32.6915 36.2392 36.8912 36.5877 37.127 40.3271C37.3124 43.2687 35.5665 45.281 33.0511 45.4399C30.0318 45.6304 28.3696 43.8495 28.3696 43.8495L29.0094 41.1283C29.0094 41.1283 30.6826 42.3907 32.0219 42.3061C32.8965 42.2506 33.2091 41.5391 33.1775 41.036C33.046 38.9537 29.626 39.0766 29.41 35.655C29.228 32.7758 31.1191 29.8581 35.2915 29.595C36.8989 29.4917 37.7215 29.9016 37.7215 29.9016Z" fill="white"/>
</g>
</g>
</g>
<g clip-path="url(#clip3_24_1546)">
<g filter="url(#filter1_ii_24_1546)">
<rect x="0.567871" width="72.2882" height="72.2882" rx="36.1441" fill="url(#paint1_linear_24_1546)"/>
</g>
<path d="M0.567871 10.1104C1.37387 10.1104 49.0958 10.1104 72.8561 10.1104" stroke="white" stroke-opacity="0.41" stroke-width="0.505512"/>
<path d="M0.567871 23.7588C1.37387 23.7588 49.0958 23.7588 72.8561 23.7588" stroke="white" stroke-opacity="0.41" stroke-width="0.505512"/>
<path d="M0.567871 37.9136C1.37387 37.9136 49.0958 37.9136 72.8561 37.9136" stroke="white" stroke-opacity="0.41" stroke-width="0.505512"/>
<path d="M0.567871 51.562C1.37387 51.562 49.0958 51.562 72.8561 51.562" stroke="white" stroke-opacity="0.41" stroke-width="0.505512"/>
<path d="M0.567871 65.2109C1.37387 65.2109 49.0958 65.2109 72.8561 65.2109" stroke="white" stroke-opacity="0.41" stroke-width="0.505512"/>
<path d="M9.16162 72.2881C9.16162 71.4821 9.16162 23.7601 9.16162 -0.000102699" stroke="white" stroke-opacity="0.41" stroke-width="0.505512"/>
<path d="M22.8105 72.2881C22.8105 71.4821 22.8105 23.7601 22.8105 -0.000102699" stroke="white" stroke-opacity="0.41" stroke-width="0.505512"/>
<path d="M36.9648 72.2881C36.9648 71.4821 36.9648 23.7601 36.9648 -0.000102699" stroke="white" stroke-opacity="0.41" stroke-width="0.505512"/>
<path d="M50.6138 72.2881C50.6138 71.4821 50.6138 23.7601 50.6138 -0.000102699" stroke="white" stroke-opacity="0.41" stroke-width="0.505512"/>
<path d="M64.2622 72.2881C64.2622 71.4821 64.2622 23.7601 64.2622 -0.000102699" stroke="white" stroke-opacity="0.41" stroke-width="0.505512"/>
<g clip-path="url(#clip4_24_1546)">
<path fill-rule="evenodd" clip-rule="evenodd" d="M43.4498 42.555C41.0253 42.555 39.0599 40.6795 39.0599 38.3663C39.0599 36.0527 41.0253 34.1772 43.4498 34.1772C45.8742 34.1772 47.8396 36.0527 47.8396 38.3663C47.8396 40.6795 45.8742 42.555 43.4498 42.555ZM44.7639 30.3016V26.5751C45.7833 26.1157 46.4972 25.1317 46.4972 23.9898V23.9037C46.4972 22.3277 45.146 21.0382 43.4944 21.0382H43.4047C41.7531 21.0382 40.4019 22.3277 40.4019 23.9037V23.9898C40.4019 25.1317 41.1158 26.1161 42.1352 26.5755V30.3016C40.6175 30.5255 39.2309 31.1227 38.0873 32.0018L27.3654 24.0428C27.4361 23.7836 27.4858 23.5167 27.4863 23.2361C27.4879 21.4514 25.9741 20.0024 24.1031 20C22.2329 19.998 20.714 21.443 20.7119 23.2281C20.7098 25.0131 22.2236 26.4621 24.0947 26.4642C24.7042 26.465 25.2686 26.2998 25.7631 26.0313L36.3098 33.8608C35.413 35.1527 34.8874 36.7002 34.8874 38.3663C34.8874 40.1103 35.4648 41.7238 36.4404 43.0506L33.2333 46.1114C32.9797 46.0387 32.7169 45.988 32.438 45.988C30.901 45.988 29.6547 47.177 29.6547 48.6437C29.6547 50.1108 30.901 51.2998 32.438 51.2998C33.9754 51.2998 35.2214 50.1108 35.2214 48.6437C35.2214 48.3784 35.1683 48.1272 35.0921 47.8852L38.2646 44.8578C39.7048 45.9065 41.4983 46.5367 43.4498 46.5367C48.1787 46.5367 52.0117 42.8786 52.0117 38.3663C52.0117 34.2813 48.867 30.9065 44.7639 30.3016Z" fill="#FF7A59"/>
</g>
</g>
<defs>
<filter id="filter0_ii_24_1546" x="0.0623593" y="-0.505512" width="73.2991" height="73.2992" filterUnits="userSpaceOnUse" color-interpolation-filters="sRGB">
<feFlood flood-opacity="0" result="BackgroundImageFix"/>
<feBlend mode="normal" in="SourceGraphic" in2="BackgroundImageFix" result="shape"/>
<feColorMatrix in="SourceAlpha" type="matrix" values="0 0 0 0 0 0 0 0 0 0 0 0 0 0 0 0 0 0 127 0" result="hardAlpha"/>
<feOffset dx="-0.505512" dy="-0.505512"/>
<feGaussianBlur stdDeviation="0.758268"/>
<feComposite in2="hardAlpha" operator="arithmetic" k2="-1" k3="1"/>
<feColorMatrix type="matrix" values="0 0 0 0 0 0 0 0 0 0 0 0 0 0 0 0 0 0 0.33 0"/>
<feBlend mode="normal" in2="shape" result="effect1_innerShadow_24_1546"/>
<feColorMatrix in="SourceAlpha" type="matrix" values="0 0 0 0 0 0 0 0 0 0 0 0 0 0 0 0 0 0 127 0" result="hardAlpha"/>
<feMorphology radius="1.01102" operator="erode" in="SourceAlpha" result="effect2_innerShadow_24_1546"/>
<feOffset dx="0.505512" dy="0.505512"/>
<feGaussianBlur stdDeviation="0.758268"/>
<feComposite in2="hardAlpha" operator="arithmetic" k2="-1" k3="1"/>
<feColorMatrix type="matrix" values="0 0 0 0 1 0 0 0 0 1 0 0 0 0 1 0 0 0 0.65 0"/>
<feBlend mode="normal" in2="effect1_innerShadow_24_1546" result="effect2_innerShadow_24_1546"/>
</filter>
<filter id="filter1_ii_24_1546" x="0.0623593" y="-0.505512" width="73.2991" height="73.2992" filterUnits="userSpaceOnUse" color-interpolation-filters="sRGB">
<feFlood flood-opacity="0" result="BackgroundImageFix"/>
<feBlend mode="normal" in="SourceGraphic" in2="BackgroundImageFix" result="shape"/>
<feColorMatrix in="SourceAlpha" type="matrix" values="0 0 0 0 0 0 0 0 0 0 0 0 0 0 0 0 0 0 127 0" result="hardAlpha"/>
<feOffset dx="-0.505512" dy="-0.505512"/>
<feGaussianBlur stdDeviation="0.758268"/>
<feComposite in2="hardAlpha" operator="arithmetic" k2="-1" k3="1"/>
<feColorMatrix type="matrix" values="0 0 0 0 0 0 0 0 0 0 0 0 0 0 0 0 0 0 0.33 0"/>
<feBlend mode="normal" in2="shape" result="effect1_innerShadow_24_1546"/>
<feColorMatrix in="SourceAlpha" type="matrix" values="0 0 0 0 0 0 0 0 0 0 0 0 0 0 0 0 0 0 127 0" result="hardAlpha"/>
<feMorphology radius="1.01102" operator="erode" in="SourceAlpha" result="effect2_innerShadow_24_1546"/>
<feOffset dx="0.505512" dy="0.505512"/>
<feGaussianBlur stdDeviation="0.758268"/>
<feComposite in2="hardAlpha" operator="arithmetic" k2="-1" k3="1"/>
<feColorMatrix type="matrix" values="0 0 0 0 1 0 0 0 0 1 0 0 0 0 1 0 0 0 0.65 0"/>
<feBlend mode="normal" in2="effect1_innerShadow_24_1546" result="effect2_innerShadow_24_1546"/>
</filter>
<linearGradient id="paint0_linear_24_1546" x1="1.9436" y1="-28.5151" x2="36.712" y2="72.2882" gradientUnits="userSpaceOnUse">
<stop stop-color="white"/>
<stop offset="1" stop-color="#DADADA"/>
</linearGradient>
<linearGradient id="paint1_linear_24_1546" x1="1.9436" y1="-28.5151" x2="36.712" y2="72.2882" gradientUnits="userSpaceOnUse">
<stop stop-color="white"/>
<stop offset="1" stop-color="#DADADA"/>
</linearGradient>
<clipPath id="clip0_24_1546">
<rect x="0.567871" width="72.2882" height="72.2882" rx="36.1441" fill="white"/>
</clipPath>
<clipPath id="clip1_24_1546">
<rect width="31.2998" height="31.2998" fill="white" transform="translate(20.7119 20)"/>
</clipPath>
<clipPath id="clip2_24_1546">
<rect width="27.1949" height="31.2998" fill="white" transform="translate(23.3203 20)"/>
</clipPath>
<clipPath id="clip3_24_1546">
<rect x="0.567871" width="72.2882" height="72.2882" rx="36.1441" fill="white"/>
</clipPath>
<clipPath id="clip4_24_1546">
<rect width="31.2998" height="31.2998" fill="white" transform="translate(20.7119 20)"/>
</clipPath>
</defs>
</svg>
