<svg width="73" height="73" viewBox="0 0 73 73" fill="none" xmlns="http://www.w3.org/2000/svg">
<g clip-path="url(#clip0_24_1768)">
<g filter="url(#filter0_ii_24_1768)">
<rect x="0.296875" width="72.2882" height="72.2882" rx="36.1441" fill="url(#paint0_linear_24_1768)"/>
</g>
<path d="M0.296875 10.1104C1.10288 10.1104 48.8248 10.1104 72.5851 10.1104" stroke="white" stroke-opacity="0.41" stroke-width="0.505512"/>
<path d="M0.296875 23.7588C1.10288 23.7588 48.8248 23.7588 72.5851 23.7588" stroke="white" stroke-opacity="0.41" stroke-width="0.505512"/>
<path d="M0.296875 37.9136C1.10288 37.9136 48.8248 37.9136 72.5851 37.9136" stroke="white" stroke-opacity="0.41" stroke-width="0.505512"/>
<path d="M0.296875 51.562C1.10288 51.562 48.8248 51.562 72.5851 51.562" stroke="white" stroke-opacity="0.41" stroke-width="0.505512"/>
<path d="M0.296875 65.2109C1.10288 65.2109 48.8248 65.2109 72.5851 65.2109" stroke="white" stroke-opacity="0.41" stroke-width="0.505512"/>
<path d="M8.89062 72.2881C8.89062 71.4821 8.89062 23.7601 8.89062 -0.000102699" stroke="white" stroke-opacity="0.41" stroke-width="0.505512"/>
<path d="M22.5396 72.2881C22.5396 71.4821 22.5395 23.7601 22.5395 -0.000102699" stroke="white" stroke-opacity="0.41" stroke-width="0.505512"/>
<path d="M36.6938 72.2881C36.6938 71.4821 36.6938 23.7601 36.6938 -0.000102699" stroke="white" stroke-opacity="0.41" stroke-width="0.505512"/>
<path d="M50.3428 72.2881C50.3428 71.4821 50.3428 23.7601 50.3428 -0.000102699" stroke="white" stroke-opacity="0.41" stroke-width="0.505512"/>
<path d="M63.9912 72.2881C63.9912 71.4821 63.9912 23.7601 63.9912 -0.000102699" stroke="white" stroke-opacity="0.41" stroke-width="0.505512"/>
<g clip-path="url(#clip1_24_1768)">
<g clip-path="url(#clip2_24_1768)">
<path d="M46.8453 25.9282C46.8239 25.7727 46.6881 25.6865 46.5754 25.6771C46.4635 25.6677 44.2718 25.6344 44.2718 25.6344C44.2718 25.6344 42.4388 23.8544 42.2578 23.6733C42.0767 23.4922 41.7231 23.5469 41.5856 23.5879C41.5839 23.5887 41.2414 23.6946 40.6648 23.8732C40.5683 23.5605 40.4265 23.1762 40.2241 22.7901C39.5716 21.5448 38.6158 20.8863 37.461 20.8846C37.4593 20.8846 37.4584 20.8846 37.4567 20.8846C37.3764 20.8846 37.297 20.8923 37.2167 20.8991C37.1826 20.8581 37.1484 20.8179 37.1125 20.7787C36.6094 20.2406 35.9646 19.9783 35.1916 20.0014C33.7003 20.0441 32.215 21.1212 31.0107 23.0344C30.1634 24.3805 29.5185 26.0717 29.3357 27.3811C27.6232 27.9115 26.4257 28.2821 26.3992 28.2907C25.5348 28.5623 25.5075 28.5888 25.3947 29.4036C25.311 30.0194 23.0493 47.5086 23.0493 47.5086L42.0032 50.7867L50.2182 48.7445C50.2182 48.7445 46.8666 26.0837 46.8453 25.9282ZM39.7159 24.167C39.2794 24.3019 38.7832 24.4557 38.2451 24.6222C38.234 23.8672 38.1443 22.8166 37.7924 21.9087C38.9241 22.1231 39.481 23.4034 39.7159 24.167ZM37.2534 24.9297C36.2601 25.2372 35.1762 25.5729 34.0889 25.9094C34.3947 24.7384 34.9746 23.5725 35.687 22.8081C35.9518 22.5236 36.3224 22.2068 36.7615 22.0257C37.174 22.8866 37.2637 24.1055 37.2534 24.9297ZM35.2215 20.9939C35.5717 20.9862 35.8663 21.0631 36.1183 21.2288C35.7152 21.438 35.3257 21.7387 34.9601 22.1307C34.0129 23.1471 33.2869 24.7247 32.9973 26.2468C32.0945 26.5261 31.2113 26.8003 30.3982 27.0514C30.9116 24.6555 32.9196 21.0605 35.2215 20.9939Z" fill="#95BF47"/>
<path d="M46.576 25.678C46.4642 25.6686 44.2725 25.6353 44.2725 25.6353C44.2725 25.6353 42.4395 23.8552 42.2585 23.6742C42.191 23.6067 42.0996 23.5717 42.0039 23.5572L42.0048 50.7859L50.2189 48.7445C50.2189 48.7445 46.8673 26.0845 46.846 25.9291C46.8246 25.7736 46.6879 25.6873 46.576 25.678Z" fill="#5E8E3E"/>
<path d="M37.4505 29.9016L36.4964 33.471C36.4964 33.471 35.4322 32.9867 34.1706 33.0662C32.3206 33.1832 32.3009 34.3499 32.3198 34.6429C32.4205 36.2392 36.6202 36.5877 36.856 40.3271C37.0414 43.2687 35.2955 45.281 32.7801 45.4399C29.7608 45.6304 28.0986 43.8495 28.0986 43.8495L28.7384 41.1283C28.7384 41.1283 30.4116 42.3907 31.7509 42.3061C32.6255 42.2506 32.9381 41.5391 32.9065 41.036C32.775 38.9537 29.355 39.0766 29.139 35.655C28.957 32.7758 30.8481 29.8581 35.0205 29.595C36.6279 29.4917 37.4505 29.9016 37.4505 29.9016Z" fill="white"/>
</g>
</g>
</g>
<g clip-path="url(#clip3_24_1768)">
<g filter="url(#filter1_ii_24_1768)">
<rect x="0.296875" width="72.2882" height="72.2882" rx="36.1441" fill="url(#paint1_linear_24_1768)"/>
</g>
<path d="M0.296875 10.1104C1.10288 10.1104 48.8248 10.1104 72.5851 10.1104" stroke="white" stroke-opacity="0.41" stroke-width="0.505512"/>
<path d="M0.296875 23.7588C1.10288 23.7588 48.8248 23.7588 72.5851 23.7588" stroke="white" stroke-opacity="0.41" stroke-width="0.505512"/>
<path d="M0.296875 37.9136C1.10288 37.9136 48.8248 37.9136 72.5851 37.9136" stroke="white" stroke-opacity="0.41" stroke-width="0.505512"/>
<path d="M0.296875 51.562C1.10288 51.562 48.8248 51.562 72.5851 51.562" stroke="white" stroke-opacity="0.41" stroke-width="0.505512"/>
<path d="M0.296875 65.2109C1.10288 65.2109 48.8248 65.2109 72.5851 65.2109" stroke="white" stroke-opacity="0.41" stroke-width="0.505512"/>
<path d="M8.89062 72.2881C8.89062 71.4821 8.89062 23.7601 8.89062 -0.000102699" stroke="white" stroke-opacity="0.41" stroke-width="0.505512"/>
<path d="M22.5396 72.2881C22.5396 71.4821 22.5395 23.7601 22.5395 -0.000102699" stroke="white" stroke-opacity="0.41" stroke-width="0.505512"/>
<path d="M36.6938 72.2881C36.6938 71.4821 36.6938 23.7601 36.6938 -0.000102699" stroke="white" stroke-opacity="0.41" stroke-width="0.505512"/>
<path d="M50.3428 72.2881C50.3428 71.4821 50.3428 23.7601 50.3428 -0.000102699" stroke="white" stroke-opacity="0.41" stroke-width="0.505512"/>
<path d="M63.9912 72.2881C63.9912 71.4821 63.9912 23.7601 63.9912 -0.000102699" stroke="white" stroke-opacity="0.41" stroke-width="0.505512"/>
<g clip-path="url(#clip4_24_1768)">
<path d="M51.7407 46.1566H20.4409V25.2167H51.7407L45.1704 35.6869L51.7407 46.1566Z" fill="#232426"/>
</g>
</g>
<defs>
<filter id="filter0_ii_24_1768" x="-0.208637" y="-0.505512" width="73.2991" height="73.2992" filterUnits="userSpaceOnUse" color-interpolation-filters="sRGB">
<feFlood flood-opacity="0" result="BackgroundImageFix"/>
<feBlend mode="normal" in="SourceGraphic" in2="BackgroundImageFix" result="shape"/>
<feColorMatrix in="SourceAlpha" type="matrix" values="0 0 0 0 0 0 0 0 0 0 0 0 0 0 0 0 0 0 127 0" result="hardAlpha"/>
<feOffset dx="-0.505512" dy="-0.505512"/>
<feGaussianBlur stdDeviation="0.758268"/>
<feComposite in2="hardAlpha" operator="arithmetic" k2="-1" k3="1"/>
<feColorMatrix type="matrix" values="0 0 0 0 0 0 0 0 0 0 0 0 0 0 0 0 0 0 0.33 0"/>
<feBlend mode="normal" in2="shape" result="effect1_innerShadow_24_1768"/>
<feColorMatrix in="SourceAlpha" type="matrix" values="0 0 0 0 0 0 0 0 0 0 0 0 0 0 0 0 0 0 127 0" result="hardAlpha"/>
<feMorphology radius="1.01102" operator="erode" in="SourceAlpha" result="effect2_innerShadow_24_1768"/>
<feOffset dx="0.505512" dy="0.505512"/>
<feGaussianBlur stdDeviation="0.758268"/>
<feComposite in2="hardAlpha" operator="arithmetic" k2="-1" k3="1"/>
<feColorMatrix type="matrix" values="0 0 0 0 1 0 0 0 0 1 0 0 0 0 1 0 0 0 0.65 0"/>
<feBlend mode="normal" in2="effect1_innerShadow_24_1768" result="effect2_innerShadow_24_1768"/>
</filter>
<filter id="filter1_ii_24_1768" x="-0.208637" y="-0.505512" width="73.2991" height="73.2992" filterUnits="userSpaceOnUse" color-interpolation-filters="sRGB">
<feFlood flood-opacity="0" result="BackgroundImageFix"/>
<feBlend mode="normal" in="SourceGraphic" in2="BackgroundImageFix" result="shape"/>
<feColorMatrix in="SourceAlpha" type="matrix" values="0 0 0 0 0 0 0 0 0 0 0 0 0 0 0 0 0 0 127 0" result="hardAlpha"/>
<feOffset dx="-0.505512" dy="-0.505512"/>
<feGaussianBlur stdDeviation="0.758268"/>
<feComposite in2="hardAlpha" operator="arithmetic" k2="-1" k3="1"/>
<feColorMatrix type="matrix" values="0 0 0 0 0 0 0 0 0 0 0 0 0 0 0 0 0 0 0.33 0"/>
<feBlend mode="normal" in2="shape" result="effect1_innerShadow_24_1768"/>
<feColorMatrix in="SourceAlpha" type="matrix" values="0 0 0 0 0 0 0 0 0 0 0 0 0 0 0 0 0 0 127 0" result="hardAlpha"/>
<feMorphology radius="1.01102" operator="erode" in="SourceAlpha" result="effect2_innerShadow_24_1768"/>
<feOffset dx="0.505512" dy="0.505512"/>
<feGaussianBlur stdDeviation="0.758268"/>
<feComposite in2="hardAlpha" operator="arithmetic" k2="-1" k3="1"/>
<feColorMatrix type="matrix" values="0 0 0 0 1 0 0 0 0 1 0 0 0 0 1 0 0 0 0.65 0"/>
<feBlend mode="normal" in2="effect1_innerShadow_24_1768" result="effect2_innerShadow_24_1768"/>
</filter>
<linearGradient id="paint0_linear_24_1768" x1="1.6726" y1="-28.5151" x2="36.441" y2="72.2882" gradientUnits="userSpaceOnUse">
<stop stop-color="white"/>
<stop offset="1" stop-color="#DADADA"/>
</linearGradient>
<linearGradient id="paint1_linear_24_1768" x1="1.6726" y1="-28.5151" x2="36.441" y2="72.2882" gradientUnits="userSpaceOnUse">
<stop stop-color="white"/>
<stop offset="1" stop-color="#DADADA"/>
</linearGradient>
<clipPath id="clip0_24_1768">
<rect x="0.296875" width="72.2882" height="72.2882" rx="36.1441" fill="white"/>
</clipPath>
<clipPath id="clip1_24_1768">
<rect width="31.2998" height="31.2998" fill="white" transform="translate(20.4409 20)"/>
</clipPath>
<clipPath id="clip2_24_1768">
<rect width="27.1949" height="31.2998" fill="white" transform="translate(23.0493 20)"/>
</clipPath>
<clipPath id="clip3_24_1768">
<rect x="0.296875" width="72.2882" height="72.2882" rx="36.1441" fill="white"/>
</clipPath>
<clipPath id="clip4_24_1768">
<rect width="31.2998" height="31.2998" fill="white" transform="translate(20.4409 20)"/>
</clipPath>
</defs>
</svg>
