<svg width="73" height="73" viewBox="0 0 73 73" fill="none" xmlns="http://www.w3.org/2000/svg">
<g clip-path="url(#clip0_24_1620)">
<g filter="url(#filter0_ii_24_1620)">
<rect x="0.144043" width="72.2882" height="72.2882" rx="36.1441" fill="url(#paint0_linear_24_1620)"/>
</g>
<path d="M0.144043 10.1104C0.950044 10.1104 48.672 10.1104 72.4322 10.1104" stroke="white" stroke-opacity="0.41" stroke-width="0.505512"/>
<path d="M0.144043 23.7588C0.950044 23.7588 48.672 23.7588 72.4322 23.7588" stroke="white" stroke-opacity="0.41" stroke-width="0.505512"/>
<path d="M0.144043 37.9136C0.950044 37.9136 48.672 37.9136 72.4322 37.9136" stroke="white" stroke-opacity="0.41" stroke-width="0.505512"/>
<path d="M0.144043 51.562C0.950044 51.562 48.672 51.562 72.4322 51.562" stroke="white" stroke-opacity="0.41" stroke-width="0.505512"/>
<path d="M0.144043 65.2109C0.950044 65.2109 48.672 65.2109 72.4322 65.2109" stroke="white" stroke-opacity="0.41" stroke-width="0.505512"/>
<path d="M8.73779 72.2881C8.73779 71.4821 8.73779 23.7601 8.73779 -0.000102699" stroke="white" stroke-opacity="0.41" stroke-width="0.505512"/>
<path d="M22.3867 72.2881C22.3867 71.4821 22.3867 23.7601 22.3867 -0.000102699" stroke="white" stroke-opacity="0.41" stroke-width="0.505512"/>
<path d="M36.541 72.2881C36.541 71.4821 36.541 23.7601 36.541 -0.000102699" stroke="white" stroke-opacity="0.41" stroke-width="0.505512"/>
<path d="M50.1899 72.2881C50.1899 71.4821 50.1899 23.7601 50.1899 -0.000102699" stroke="white" stroke-opacity="0.41" stroke-width="0.505512"/>
<path d="M63.8384 72.2881C63.8384 71.4821 63.8384 23.7601 63.8384 -0.000102699" stroke="white" stroke-opacity="0.41" stroke-width="0.505512"/>
<g clip-path="url(#clip1_24_1620)">
<g clip-path="url(#clip2_24_1620)">
<path d="M46.6924 25.9282C46.6711 25.7727 46.5353 25.6865 46.4225 25.6771C46.3107 25.6677 44.119 25.6344 44.119 25.6344C44.119 25.6344 42.286 23.8544 42.1049 23.6733C41.9239 23.4922 41.5703 23.5469 41.4327 23.5879C41.431 23.5887 41.0885 23.6946 40.512 23.8732C40.4155 23.5605 40.2737 23.1762 40.0713 22.7901C39.4187 21.5448 38.463 20.8863 37.3081 20.8846C37.3065 20.8846 37.3056 20.8846 37.3039 20.8846C37.2236 20.8846 37.1442 20.8923 37.0639 20.8991C37.0297 20.8581 36.9956 20.8179 36.9597 20.7787C36.4566 20.2406 35.8118 19.9783 35.0388 20.0014C33.5474 20.0441 32.0621 21.1212 30.8578 23.0344C30.0105 24.3805 29.3656 26.0717 29.1829 27.3811C27.4703 27.9115 26.2728 28.2821 26.2464 28.2907C25.382 28.5623 25.3547 28.5888 25.2419 29.4036C25.1582 30.0194 22.8965 47.5086 22.8965 47.5086L41.8504 50.7867L50.0654 48.7445C50.0654 48.7445 46.7138 26.0837 46.6924 25.9282ZM39.5631 24.167C39.1266 24.3019 38.6303 24.4557 38.0922 24.6222C38.0812 23.8672 37.9915 22.8166 37.6396 21.9087C38.7713 22.1231 39.3282 23.4034 39.5631 24.167ZM37.1006 24.9297C36.1073 25.2372 35.0234 25.5729 33.9361 25.9094C34.2418 24.7384 34.8218 23.5725 35.5342 22.8081C35.7989 22.5236 36.1696 22.2068 36.6086 22.0257C37.0212 22.8866 37.1109 24.1055 37.1006 24.9297ZM35.0686 20.9939C35.4188 20.9862 35.7135 21.0631 35.9655 21.2288C35.5623 21.438 35.1728 21.7387 34.8073 22.1307C33.86 23.1471 33.134 24.7247 32.8445 26.2468C31.9417 26.5261 31.0585 26.8003 30.2454 27.0514C30.7587 24.6555 32.7668 21.0605 35.0686 20.9939Z" fill="#95BF47"/>
<path d="M46.4232 25.678C46.3113 25.6686 44.1196 25.6353 44.1196 25.6353C44.1196 25.6353 42.2867 23.8552 42.1056 23.6742C42.0382 23.6067 41.9468 23.5717 41.8511 23.5572L41.8519 50.7859L50.0661 48.7445C50.0661 48.7445 46.7145 26.0845 46.6932 25.9291C46.6718 25.7736 46.5351 25.6873 46.4232 25.678Z" fill="#5E8E3E"/>
<path d="M37.2976 29.9016L36.3436 33.471C36.3436 33.471 35.2794 32.9867 34.0178 33.0662C32.1677 33.1832 32.1481 34.3499 32.1669 34.6429C32.2677 36.2392 36.4674 36.5877 36.7032 40.3271C36.8885 43.2687 35.1427 45.281 32.6273 45.4399C29.6079 45.6304 27.9458 43.8495 27.9458 43.8495L28.5856 41.1283C28.5856 41.1283 30.2588 42.3907 31.598 42.3061C32.4727 42.2506 32.7853 41.5391 32.7537 41.036C32.6222 38.9537 29.2022 39.0766 28.9861 35.655C28.8042 32.7758 30.6953 29.8581 34.8676 29.595C36.4751 29.4917 37.2976 29.9016 37.2976 29.9016Z" fill="white"/>
</g>
</g>
</g>
<g clip-path="url(#clip3_24_1620)">
<g filter="url(#filter1_ii_24_1620)">
<rect x="0.144043" width="72.2882" height="72.2882" rx="36.1441" fill="url(#paint1_linear_24_1620)"/>
</g>
<path d="M0.144043 10.1104C0.950044 10.1104 48.672 10.1104 72.4322 10.1104" stroke="white" stroke-opacity="0.41" stroke-width="0.505512"/>
<path d="M0.144043 23.7588C0.950044 23.7588 48.672 23.7588 72.4322 23.7588" stroke="white" stroke-opacity="0.41" stroke-width="0.505512"/>
<path d="M0.144043 37.9136C0.950044 37.9136 48.672 37.9136 72.4322 37.9136" stroke="white" stroke-opacity="0.41" stroke-width="0.505512"/>
<path d="M0.144043 51.562C0.950044 51.562 48.672 51.562 72.4322 51.562" stroke="white" stroke-opacity="0.41" stroke-width="0.505512"/>
<path d="M0.144043 65.2109C0.950044 65.2109 48.672 65.2109 72.4322 65.2109" stroke="white" stroke-opacity="0.41" stroke-width="0.505512"/>
<path d="M8.73779 72.2881C8.73779 71.4821 8.73779 23.7601 8.73779 -0.000102699" stroke="white" stroke-opacity="0.41" stroke-width="0.505512"/>
<path d="M22.3867 72.2881C22.3867 71.4821 22.3867 23.7601 22.3867 -0.000102699" stroke="white" stroke-opacity="0.41" stroke-width="0.505512"/>
<path d="M36.541 72.2881C36.541 71.4821 36.541 23.7601 36.541 -0.000102699" stroke="white" stroke-opacity="0.41" stroke-width="0.505512"/>
<path d="M50.1899 72.2881C50.1899 71.4821 50.1899 23.7601 50.1899 -0.000102699" stroke="white" stroke-opacity="0.41" stroke-width="0.505512"/>
<path d="M63.8384 72.2881C63.8384 71.4821 63.8384 23.7601 63.8384 -0.000102699" stroke="white" stroke-opacity="0.41" stroke-width="0.505512"/>
<g clip-path="url(#clip4_24_1620)">
<path d="M35.938 51.2998C44.5812 51.2998 51.5879 44.2931 51.5879 35.6499C51.5879 27.0067 44.5812 20 35.938 20C27.2948 20 20.2881 27.0067 20.2881 35.6499C20.2881 44.2931 27.2948 51.2998 35.938 51.2998Z" fill="#2CA01C"/>
<path d="M24.6338 35.6497C24.6338 39.0107 27.3585 41.7359 30.7195 41.7359H31.589V39.4752H30.7195C28.6102 39.4752 26.8939 37.7584 26.8939 35.6497C26.8939 33.5399 28.6102 31.8241 30.7195 31.8241H32.8088V43.6482C32.8088 44.8965 33.8211 45.9088 35.0695 45.9088V29.5635H30.7195C27.3585 29.5635 24.6338 32.2887 24.6338 35.6497ZM41.1561 29.5645H40.2867V31.8251H41.1561C43.2653 31.8251 44.9817 33.541 44.9812 35.6507C44.9812 37.7604 43.2653 39.4762 41.1561 39.4762H39.0668V27.6512C39.0668 26.4028 38.0545 25.3915 36.8061 25.3915V41.7359H41.1561C44.5171 41.7359 47.2417 39.0117 47.2417 35.6507C47.2417 32.2887 44.5171 29.5645 41.1561 29.5645Z" fill="white"/>
</g>
</g>
<defs>
<filter id="filter0_ii_24_1620" x="-0.361469" y="-0.505512" width="73.2991" height="73.2992" filterUnits="userSpaceOnUse" color-interpolation-filters="sRGB">
<feFlood flood-opacity="0" result="BackgroundImageFix"/>
<feBlend mode="normal" in="SourceGraphic" in2="BackgroundImageFix" result="shape"/>
<feColorMatrix in="SourceAlpha" type="matrix" values="0 0 0 0 0 0 0 0 0 0 0 0 0 0 0 0 0 0 127 0" result="hardAlpha"/>
<feOffset dx="-0.505512" dy="-0.505512"/>
<feGaussianBlur stdDeviation="0.758268"/>
<feComposite in2="hardAlpha" operator="arithmetic" k2="-1" k3="1"/>
<feColorMatrix type="matrix" values="0 0 0 0 0 0 0 0 0 0 0 0 0 0 0 0 0 0 0.33 0"/>
<feBlend mode="normal" in2="shape" result="effect1_innerShadow_24_1620"/>
<feColorMatrix in="SourceAlpha" type="matrix" values="0 0 0 0 0 0 0 0 0 0 0 0 0 0 0 0 0 0 127 0" result="hardAlpha"/>
<feMorphology radius="1.01102" operator="erode" in="SourceAlpha" result="effect2_innerShadow_24_1620"/>
<feOffset dx="0.505512" dy="0.505512"/>
<feGaussianBlur stdDeviation="0.758268"/>
<feComposite in2="hardAlpha" operator="arithmetic" k2="-1" k3="1"/>
<feColorMatrix type="matrix" values="0 0 0 0 1 0 0 0 0 1 0 0 0 0 1 0 0 0 0.65 0"/>
<feBlend mode="normal" in2="effect1_innerShadow_24_1620" result="effect2_innerShadow_24_1620"/>
</filter>
<filter id="filter1_ii_24_1620" x="-0.361469" y="-0.505512" width="73.2991" height="73.2992" filterUnits="userSpaceOnUse" color-interpolation-filters="sRGB">
<feFlood flood-opacity="0" result="BackgroundImageFix"/>
<feBlend mode="normal" in="SourceGraphic" in2="BackgroundImageFix" result="shape"/>
<feColorMatrix in="SourceAlpha" type="matrix" values="0 0 0 0 0 0 0 0 0 0 0 0 0 0 0 0 0 0 127 0" result="hardAlpha"/>
<feOffset dx="-0.505512" dy="-0.505512"/>
<feGaussianBlur stdDeviation="0.758268"/>
<feComposite in2="hardAlpha" operator="arithmetic" k2="-1" k3="1"/>
<feColorMatrix type="matrix" values="0 0 0 0 0 0 0 0 0 0 0 0 0 0 0 0 0 0 0.33 0"/>
<feBlend mode="normal" in2="shape" result="effect1_innerShadow_24_1620"/>
<feColorMatrix in="SourceAlpha" type="matrix" values="0 0 0 0 0 0 0 0 0 0 0 0 0 0 0 0 0 0 127 0" result="hardAlpha"/>
<feMorphology radius="1.01102" operator="erode" in="SourceAlpha" result="effect2_innerShadow_24_1620"/>
<feOffset dx="0.505512" dy="0.505512"/>
<feGaussianBlur stdDeviation="0.758268"/>
<feComposite in2="hardAlpha" operator="arithmetic" k2="-1" k3="1"/>
<feColorMatrix type="matrix" values="0 0 0 0 1 0 0 0 0 1 0 0 0 0 1 0 0 0 0.65 0"/>
<feBlend mode="normal" in2="effect1_innerShadow_24_1620" result="effect2_innerShadow_24_1620"/>
</filter>
<linearGradient id="paint0_linear_24_1620" x1="1.51977" y1="-28.5151" x2="36.2881" y2="72.2882" gradientUnits="userSpaceOnUse">
<stop stop-color="white"/>
<stop offset="1" stop-color="#DADADA"/>
</linearGradient>
<linearGradient id="paint1_linear_24_1620" x1="1.51977" y1="-28.5151" x2="36.2881" y2="72.2882" gradientUnits="userSpaceOnUse">
<stop stop-color="white"/>
<stop offset="1" stop-color="#DADADA"/>
</linearGradient>
<clipPath id="clip0_24_1620">
<rect x="0.144043" width="72.2882" height="72.2882" rx="36.1441" fill="white"/>
</clipPath>
<clipPath id="clip1_24_1620">
<rect width="31.2998" height="31.2998" fill="white" transform="translate(20.2881 20)"/>
</clipPath>
<clipPath id="clip2_24_1620">
<rect width="27.1949" height="31.2998" fill="white" transform="translate(22.8965 20)"/>
</clipPath>
<clipPath id="clip3_24_1620">
<rect x="0.144043" width="72.2882" height="72.2882" rx="36.1441" fill="white"/>
</clipPath>
<clipPath id="clip4_24_1620">
<rect width="31.2998" height="31.2998" fill="white" transform="translate(20.2881 20)"/>
</clipPath>
</defs>
</svg>
