<svg width="73" height="73" viewBox="0 0 73 73" fill="none" xmlns="http://www.w3.org/2000/svg">
<g clip-path="url(#clip0_24_1323)">
<g filter="url(#filter0_ii_24_1323)">
<rect x="0.126709" width="72.2882" height="72.2882" rx="36.1441" fill="url(#paint0_linear_24_1323)"/>
</g>
<path d="M0.126709 10.1104C0.93271 10.1104 48.6547 10.1104 72.4149 10.1104" stroke="white" stroke-opacity="0.41" stroke-width="0.505512"/>
<path d="M0.126709 23.7588C0.93271 23.7588 48.6547 23.7588 72.4149 23.7588" stroke="white" stroke-opacity="0.41" stroke-width="0.505512"/>
<path d="M0.126709 37.9136C0.93271 37.9136 48.6547 37.9136 72.4149 37.9136" stroke="white" stroke-opacity="0.41" stroke-width="0.505512"/>
<path d="M0.126709 51.562C0.93271 51.562 48.6547 51.562 72.4149 51.562" stroke="white" stroke-opacity="0.41" stroke-width="0.505512"/>
<path d="M0.126709 65.2109C0.93271 65.2109 48.6547 65.2109 72.4149 65.2109" stroke="white" stroke-opacity="0.41" stroke-width="0.505512"/>
<path d="M8.72046 72.2881C8.72046 71.4821 8.72046 23.7601 8.72046 -0.000102699" stroke="white" stroke-opacity="0.41" stroke-width="0.505512"/>
<path d="M22.3694 72.2881C22.3694 71.4821 22.3694 23.7601 22.3694 -0.000102699" stroke="white" stroke-opacity="0.41" stroke-width="0.505512"/>
<path d="M36.5237 72.2881C36.5237 71.4821 36.5237 23.7601 36.5237 -0.000102699" stroke="white" stroke-opacity="0.41" stroke-width="0.505512"/>
<path d="M50.1729 72.2881C50.1729 71.4821 50.1728 23.7601 50.1728 -0.000102699" stroke="white" stroke-opacity="0.41" stroke-width="0.505512"/>
<path d="M63.8213 72.2881C63.8213 71.4821 63.8213 23.7601 63.8213 -0.000102699" stroke="white" stroke-opacity="0.41" stroke-width="0.505512"/>
<g clip-path="url(#clip1_24_1323)">
<g clip-path="url(#clip2_24_1323)">
<path d="M46.6749 25.9282C46.6535 25.7727 46.5177 25.6865 46.405 25.6771C46.2931 25.6677 44.1014 25.6344 44.1014 25.6344C44.1014 25.6344 42.2684 23.8544 42.0873 23.6733C41.9063 23.4922 41.5527 23.5469 41.4152 23.5879C41.4135 23.5887 41.071 23.6946 40.4944 23.8732C40.3979 23.5605 40.2561 23.1762 40.0537 22.7901C39.4012 21.5448 38.4454 20.8863 37.2906 20.8846C37.2889 20.8846 37.288 20.8846 37.2863 20.8846C37.206 20.8846 37.1266 20.8923 37.0463 20.8991C37.0122 20.8581 36.978 20.8179 36.9421 20.7787C36.439 20.2406 35.7942 19.9783 35.0212 20.0014C33.5299 20.0441 32.0446 21.1212 30.8402 23.0344C29.9929 24.3805 29.3481 26.0717 29.1653 27.3811C27.4528 27.9115 26.2553 28.2821 26.2288 28.2907C25.3644 28.5623 25.3371 28.5888 25.2243 29.4036C25.1406 30.0194 22.8789 47.5086 22.8789 47.5086L41.8328 50.7867L50.0478 48.7445C50.0478 48.7445 46.6962 26.0837 46.6749 25.9282ZM39.5455 24.167C39.109 24.3019 38.6128 24.4557 38.0747 24.6222C38.0636 23.8672 37.9739 22.8166 37.622 21.9087C38.7537 22.1231 39.3106 23.4034 39.5455 24.167ZM37.083 24.9297C36.0897 25.2372 35.0058 25.5729 33.9185 25.9094C34.2243 24.7384 34.8042 23.5725 35.5166 22.8081C35.7814 22.5236 36.152 22.2068 36.591 22.0257C37.0036 22.8866 37.0933 24.1055 37.083 24.9297ZM35.051 20.9939C35.4012 20.9862 35.6959 21.0631 35.9479 21.2288C35.5448 21.438 35.1553 21.7387 34.7897 22.1307C33.8425 23.1471 33.1165 24.7247 32.8269 26.2468C31.9241 26.5261 31.0409 26.8003 30.2278 27.0514C30.7412 24.6555 32.7492 21.0605 35.051 20.9939Z" fill="#95BF47"/>
<path d="M46.4056 25.678C46.2938 25.6686 44.1021 25.6353 44.1021 25.6353C44.1021 25.6353 42.2691 23.8552 42.0881 23.6742C42.0206 23.6067 41.9292 23.5717 41.8335 23.5572L41.8344 50.7859L50.0485 48.7445C50.0485 48.7445 46.6969 26.0845 46.6756 25.9291C46.6542 25.7736 46.5175 25.6873 46.4056 25.678Z" fill="#5E8E3E"/>
<path d="M37.28 29.9016L36.326 33.471C36.326 33.471 35.2618 32.9867 34.0002 33.0662C32.1502 33.1832 32.1305 34.3499 32.1493 34.6429C32.2501 36.2392 36.4498 36.5877 36.6856 40.3271C36.8709 43.2687 35.1251 45.281 32.6097 45.4399C29.5904 45.6304 27.9282 43.8495 27.9282 43.8495L28.568 41.1283C28.568 41.1283 30.2412 42.3907 31.5805 42.3061C32.4551 42.2506 32.7677 41.5391 32.7361 41.036C32.6046 38.9537 29.1846 39.0766 28.9686 35.655C28.7866 32.7758 30.6777 29.8581 34.8501 29.595C36.4575 29.4917 37.28 29.9016 37.28 29.9016Z" fill="white"/>
</g>
</g>
</g>
<g clip-path="url(#clip3_24_1323)">
<g filter="url(#filter1_ii_24_1323)">
<rect x="0.126709" width="72.2882" height="72.2882" rx="36.1441" fill="url(#paint1_linear_24_1323)"/>
</g>
<path d="M0.126709 10.1104C0.93271 10.1104 48.6547 10.1104 72.4149 10.1104" stroke="white" stroke-opacity="0.41" stroke-width="0.505512"/>
<path d="M0.126709 23.7588C0.93271 23.7588 48.6547 23.7588 72.4149 23.7588" stroke="white" stroke-opacity="0.41" stroke-width="0.505512"/>
<path d="M0.126709 37.9136C0.93271 37.9136 48.6547 37.9136 72.4149 37.9136" stroke="white" stroke-opacity="0.41" stroke-width="0.505512"/>
<path d="M0.126709 51.562C0.93271 51.562 48.6547 51.562 72.4149 51.562" stroke="white" stroke-opacity="0.41" stroke-width="0.505512"/>
<path d="M0.126709 65.2109C0.93271 65.2109 48.6547 65.2109 72.4149 65.2109" stroke="white" stroke-opacity="0.41" stroke-width="0.505512"/>
<path d="M8.72046 72.2881C8.72046 71.4821 8.72046 23.7601 8.72046 -0.000102699" stroke="white" stroke-opacity="0.41" stroke-width="0.505512"/>
<path d="M22.3694 72.2881C22.3694 71.4821 22.3694 23.7601 22.3694 -0.000102699" stroke="white" stroke-opacity="0.41" stroke-width="0.505512"/>
<path d="M36.5237 72.2881C36.5237 71.4821 36.5237 23.7601 36.5237 -0.000102699" stroke="white" stroke-opacity="0.41" stroke-width="0.505512"/>
<path d="M50.1729 72.2881C50.1729 71.4821 50.1728 23.7601 50.1728 -0.000102699" stroke="white" stroke-opacity="0.41" stroke-width="0.505512"/>
<path d="M63.8213 72.2881C63.8213 71.4821 63.8213 23.7601 63.8213 -0.000102699" stroke="white" stroke-opacity="0.41" stroke-width="0.505512"/>
<g clip-path="url(#clip4_24_1323)">
<g clip-path="url(#clip5_24_1323)">
<path d="M46.6749 25.9282C46.6535 25.7727 46.5177 25.6865 46.405 25.6771C46.2931 25.6677 44.1014 25.6344 44.1014 25.6344C44.1014 25.6344 42.2684 23.8544 42.0873 23.6733C41.9063 23.4922 41.5527 23.5469 41.4152 23.5879C41.4135 23.5887 41.071 23.6946 40.4944 23.8732C40.3979 23.5605 40.2561 23.1762 40.0537 22.7901C39.4012 21.5448 38.4454 20.8863 37.2906 20.8846C37.2889 20.8846 37.288 20.8846 37.2863 20.8846C37.206 20.8846 37.1266 20.8923 37.0463 20.8991C37.0122 20.8581 36.978 20.8179 36.9421 20.7787C36.439 20.2406 35.7942 19.9783 35.0212 20.0014C33.5299 20.0441 32.0446 21.1212 30.8402 23.0344C29.9929 24.3805 29.3481 26.0717 29.1653 27.3811C27.4528 27.9115 26.2553 28.2821 26.2288 28.2907C25.3644 28.5623 25.3371 28.5888 25.2243 29.4036C25.1406 30.0194 22.8789 47.5086 22.8789 47.5086L41.8328 50.7867L50.0478 48.7445C50.0478 48.7445 46.6962 26.0837 46.6749 25.9282ZM39.5455 24.167C39.109 24.3019 38.6128 24.4557 38.0747 24.6222C38.0636 23.8672 37.9739 22.8166 37.622 21.9087C38.7537 22.1231 39.3106 23.4034 39.5455 24.167ZM37.083 24.9297C36.0897 25.2372 35.0058 25.5729 33.9185 25.9094C34.2243 24.7384 34.8042 23.5725 35.5166 22.8081C35.7814 22.5236 36.152 22.2068 36.591 22.0257C37.0036 22.8866 37.0933 24.1055 37.083 24.9297ZM35.051 20.9939C35.4012 20.9862 35.6959 21.0631 35.9479 21.2288C35.5448 21.438 35.1553 21.7387 34.7897 22.1307C33.8425 23.1471 33.1165 24.7247 32.8269 26.2468C31.9241 26.5261 31.0409 26.8003 30.2278 27.0514C30.7412 24.6555 32.7492 21.0605 35.051 20.9939Z" fill="#95BF47"/>
<path d="M46.4056 25.678C46.2938 25.6686 44.1021 25.6353 44.1021 25.6353C44.1021 25.6353 42.2691 23.8552 42.0881 23.6742C42.0206 23.6067 41.9292 23.5717 41.8335 23.5572L41.8344 50.7859L50.0485 48.7445C50.0485 48.7445 46.6969 26.0845 46.6756 25.9291C46.6542 25.7736 46.5175 25.6873 46.4056 25.678Z" fill="#5E8E3E"/>
<path d="M37.28 29.9016L36.326 33.471C36.326 33.471 35.2618 32.9867 34.0002 33.0662C32.1502 33.1832 32.1305 34.3499 32.1493 34.6429C32.2501 36.2392 36.4498 36.5877 36.6856 40.3271C36.8709 43.2687 35.1251 45.281 32.6097 45.4399C29.5904 45.6304 27.9282 43.8495 27.9282 43.8495L28.568 41.1283C28.568 41.1283 30.2412 42.3907 31.5805 42.3061C32.4551 42.2506 32.7677 41.5391 32.7361 41.036C32.6046 38.9537 29.1846 39.0766 28.9686 35.655C28.7866 32.7758 30.6777 29.8581 34.8501 29.595C36.4575 29.4917 37.28 29.9016 37.28 29.9016Z" fill="white"/>
</g>
</g>
</g>
<defs>
<filter id="filter0_ii_24_1323" x="-0.378803" y="-0.505512" width="73.2994" height="73.2992" filterUnits="userSpaceOnUse" color-interpolation-filters="sRGB">
<feFlood flood-opacity="0" result="BackgroundImageFix"/>
<feBlend mode="normal" in="SourceGraphic" in2="BackgroundImageFix" result="shape"/>
<feColorMatrix in="SourceAlpha" type="matrix" values="0 0 0 0 0 0 0 0 0 0 0 0 0 0 0 0 0 0 127 0" result="hardAlpha"/>
<feOffset dx="-0.505512" dy="-0.505512"/>
<feGaussianBlur stdDeviation="0.758268"/>
<feComposite in2="hardAlpha" operator="arithmetic" k2="-1" k3="1"/>
<feColorMatrix type="matrix" values="0 0 0 0 0 0 0 0 0 0 0 0 0 0 0 0 0 0 0.33 0"/>
<feBlend mode="normal" in2="shape" result="effect1_innerShadow_24_1323"/>
<feColorMatrix in="SourceAlpha" type="matrix" values="0 0 0 0 0 0 0 0 0 0 0 0 0 0 0 0 0 0 127 0" result="hardAlpha"/>
<feMorphology radius="1.01102" operator="erode" in="SourceAlpha" result="effect2_innerShadow_24_1323"/>
<feOffset dx="0.505512" dy="0.505512"/>
<feGaussianBlur stdDeviation="0.758268"/>
<feComposite in2="hardAlpha" operator="arithmetic" k2="-1" k3="1"/>
<feColorMatrix type="matrix" values="0 0 0 0 1 0 0 0 0 1 0 0 0 0 1 0 0 0 0.65 0"/>
<feBlend mode="normal" in2="effect1_innerShadow_24_1323" result="effect2_innerShadow_24_1323"/>
</filter>
<filter id="filter1_ii_24_1323" x="-0.378803" y="-0.505512" width="73.2994" height="73.2992" filterUnits="userSpaceOnUse" color-interpolation-filters="sRGB">
<feFlood flood-opacity="0" result="BackgroundImageFix"/>
<feBlend mode="normal" in="SourceGraphic" in2="BackgroundImageFix" result="shape"/>
<feColorMatrix in="SourceAlpha" type="matrix" values="0 0 0 0 0 0 0 0 0 0 0 0 0 0 0 0 0 0 127 0" result="hardAlpha"/>
<feOffset dx="-0.505512" dy="-0.505512"/>
<feGaussianBlur stdDeviation="0.758268"/>
<feComposite in2="hardAlpha" operator="arithmetic" k2="-1" k3="1"/>
<feColorMatrix type="matrix" values="0 0 0 0 0 0 0 0 0 0 0 0 0 0 0 0 0 0 0.33 0"/>
<feBlend mode="normal" in2="shape" result="effect1_innerShadow_24_1323"/>
<feColorMatrix in="SourceAlpha" type="matrix" values="0 0 0 0 0 0 0 0 0 0 0 0 0 0 0 0 0 0 127 0" result="hardAlpha"/>
<feMorphology radius="1.01102" operator="erode" in="SourceAlpha" result="effect2_innerShadow_24_1323"/>
<feOffset dx="0.505512" dy="0.505512"/>
<feGaussianBlur stdDeviation="0.758268"/>
<feComposite in2="hardAlpha" operator="arithmetic" k2="-1" k3="1"/>
<feColorMatrix type="matrix" values="0 0 0 0 1 0 0 0 0 1 0 0 0 0 1 0 0 0 0.65 0"/>
<feBlend mode="normal" in2="effect1_innerShadow_24_1323" result="effect2_innerShadow_24_1323"/>
</filter>
<linearGradient id="paint0_linear_24_1323" x1="1.50243" y1="-28.5151" x2="36.2708" y2="72.2882" gradientUnits="userSpaceOnUse">
<stop stop-color="white"/>
<stop offset="1" stop-color="#DADADA"/>
</linearGradient>
<linearGradient id="paint1_linear_24_1323" x1="1.50243" y1="-28.5151" x2="36.2708" y2="72.2882" gradientUnits="userSpaceOnUse">
<stop stop-color="white"/>
<stop offset="1" stop-color="#DADADA"/>
</linearGradient>
<clipPath id="clip0_24_1323">
<rect x="0.126709" width="72.2882" height="72.2882" rx="36.1441" fill="white"/>
</clipPath>
<clipPath id="clip1_24_1323">
<rect width="31.2998" height="31.2998" fill="white" transform="translate(20.2708 20)"/>
</clipPath>
<clipPath id="clip2_24_1323">
<rect width="27.1949" height="31.2998" fill="white" transform="translate(22.8789 20)"/>
</clipPath>
<clipPath id="clip3_24_1323">
<rect x="0.126709" width="72.2882" height="72.2882" rx="36.1441" fill="white"/>
</clipPath>
<clipPath id="clip4_24_1323">
<rect width="31.2998" height="31.2998" fill="white" transform="translate(20.2708 20)"/>
</clipPath>
<clipPath id="clip5_24_1323">
<rect width="27.1949" height="31.2998" fill="white" transform="translate(22.8789 20)"/>
</clipPath>
</defs>
</svg>
