<svg width="73" height="73" viewBox="0 0 73 73" fill="none" xmlns="http://www.w3.org/2000/svg">
<g clip-path="url(#clip0_24_1398)">
<g filter="url(#filter0_ii_24_1398)">
<rect x="0.415039" width="72.2882" height="72.2882" rx="36.1441" fill="url(#paint0_linear_24_1398)"/>
</g>
<path d="M0.415039 10.1104C1.22104 10.1104 48.943 10.1104 72.7032 10.1104" stroke="white" stroke-opacity="0.41" stroke-width="0.505512"/>
<path d="M0.415039 23.7588C1.22104 23.7588 48.943 23.7588 72.7032 23.7588" stroke="white" stroke-opacity="0.41" stroke-width="0.505512"/>
<path d="M0.415039 37.9136C1.22104 37.9136 48.943 37.9136 72.7032 37.9136" stroke="white" stroke-opacity="0.41" stroke-width="0.505512"/>
<path d="M0.415039 51.562C1.22104 51.562 48.943 51.562 72.7032 51.562" stroke="white" stroke-opacity="0.41" stroke-width="0.505512"/>
<path d="M0.415039 65.2109C1.22104 65.2109 48.943 65.2109 72.7032 65.2109" stroke="white" stroke-opacity="0.41" stroke-width="0.505512"/>
<path d="M9.00879 72.2881C9.00879 71.4821 9.00879 23.7601 9.00879 -0.000102699" stroke="white" stroke-opacity="0.41" stroke-width="0.505512"/>
<path d="M22.6577 72.2881C22.6577 71.4821 22.6577 23.7601 22.6577 -0.000102699" stroke="white" stroke-opacity="0.41" stroke-width="0.505512"/>
<path d="M36.812 72.2881C36.812 71.4821 36.812 23.7601 36.812 -0.000102699" stroke="white" stroke-opacity="0.41" stroke-width="0.505512"/>
<path d="M50.4609 72.2881C50.4609 71.4821 50.4609 23.7601 50.4609 -0.000102699" stroke="white" stroke-opacity="0.41" stroke-width="0.505512"/>
<path d="M64.1094 72.2881C64.1094 71.4821 64.1094 23.7601 64.1094 -0.000102699" stroke="white" stroke-opacity="0.41" stroke-width="0.505512"/>
<g clip-path="url(#clip1_24_1398)">
<g clip-path="url(#clip2_24_1398)">
<path d="M46.9634 25.9282C46.9421 25.7727 46.8063 25.6865 46.6935 25.6771C46.5817 25.6677 44.39 25.6344 44.39 25.6344C44.39 25.6344 42.557 23.8544 42.3759 23.6733C42.1949 23.4922 41.8413 23.5469 41.7037 23.5879C41.702 23.5887 41.3595 23.6946 40.783 23.8732C40.6865 23.5605 40.5447 23.1762 40.3423 22.7901C39.6897 21.5448 38.734 20.8863 37.5791 20.8846C37.5774 20.8846 37.5766 20.8846 37.5749 20.8846C37.4946 20.8846 37.4152 20.8923 37.3349 20.8991C37.3007 20.8581 37.2666 20.8179 37.2307 20.7787C36.7276 20.2406 36.0828 19.9783 35.3098 20.0014C33.8184 20.0441 32.3331 21.1212 31.1288 23.0344C30.2815 24.3805 29.6366 26.0717 29.4539 27.3811C27.7413 27.9115 26.5438 28.2821 26.5174 28.2907C25.653 28.5623 25.6257 28.5888 25.5129 29.4036C25.4292 30.0194 23.1675 47.5086 23.1675 47.5086L42.1214 50.7867L50.3364 48.7445C50.3364 48.7445 46.9848 26.0837 46.9634 25.9282ZM39.8341 24.167C39.3976 24.3019 38.9013 24.4557 38.3632 24.6222C38.3521 23.8672 38.2625 22.8166 37.9106 21.9087C39.0423 22.1231 39.5992 23.4034 39.8341 24.167ZM37.3716 24.9297C36.3783 25.2372 35.2944 25.5729 34.2071 25.9094C34.5128 24.7384 35.0928 23.5725 35.8052 22.8081C36.0699 22.5236 36.4406 22.2068 36.8796 22.0257C37.2922 22.8866 37.3819 24.1055 37.3716 24.9297ZM35.3396 20.9939C35.6898 20.9862 35.9845 21.0631 36.2365 21.2288C35.8333 21.438 35.4438 21.7387 35.0783 22.1307C34.131 23.1471 33.405 24.7247 33.1155 26.2468C32.2127 26.5261 31.3295 26.8003 30.5164 27.0514C31.0297 24.6555 33.0377 21.0605 35.3396 20.9939Z" fill="#95BF47"/>
<path d="M46.6942 25.678C46.5823 25.6686 44.3906 25.6353 44.3906 25.6353C44.3906 25.6353 42.5577 23.8552 42.3766 23.6742C42.3092 23.6067 42.2178 23.5717 42.1221 23.5572L42.1229 50.7859L50.3371 48.7445C50.3371 48.7445 46.9855 26.0845 46.9642 25.9291C46.9428 25.7736 46.8061 25.6873 46.6942 25.678Z" fill="#5E8E3E"/>
<path d="M37.5686 29.9016L36.6146 33.471C36.6146 33.471 35.5503 32.9867 34.2888 33.0662C32.4387 33.1832 32.4191 34.3499 32.4379 34.6429C32.5387 36.2392 36.7384 36.5877 36.9742 40.3271C37.1595 43.2687 35.4137 45.281 32.8983 45.4399C29.8789 45.6304 28.2168 43.8495 28.2168 43.8495L28.8565 41.1283C28.8565 41.1283 30.5298 42.3907 31.869 42.3061C32.7437 42.2506 33.0563 41.5391 33.0247 41.036C32.8931 38.9537 29.4732 39.0766 29.2571 35.655C29.0752 32.7758 30.9663 29.8581 35.1386 29.595C36.7461 29.4917 37.5686 29.9016 37.5686 29.9016Z" fill="white"/>
</g>
</g>
</g>
<g clip-path="url(#clip3_24_1398)">
<g filter="url(#filter1_ii_24_1398)">
<rect x="0.415039" width="72.2882" height="72.2882" rx="36.1441" fill="url(#paint1_linear_24_1398)"/>
</g>
<path d="M0.415039 10.1104C1.22104 10.1104 48.943 10.1104 72.7032 10.1104" stroke="white" stroke-opacity="0.41" stroke-width="0.505512"/>
<path d="M0.415039 23.7588C1.22104 23.7588 48.943 23.7588 72.7032 23.7588" stroke="white" stroke-opacity="0.41" stroke-width="0.505512"/>
<path d="M0.415039 37.9136C1.22104 37.9136 48.943 37.9136 72.7032 37.9136" stroke="white" stroke-opacity="0.41" stroke-width="0.505512"/>
<path d="M0.415039 51.562C1.22104 51.562 48.943 51.562 72.7032 51.562" stroke="white" stroke-opacity="0.41" stroke-width="0.505512"/>
<path d="M0.415039 65.2109C1.22104 65.2109 48.943 65.2109 72.7032 65.2109" stroke="white" stroke-opacity="0.41" stroke-width="0.505512"/>
<path d="M9.00879 72.2881C9.00879 71.4821 9.00879 23.7601 9.00879 -0.000102699" stroke="white" stroke-opacity="0.41" stroke-width="0.505512"/>
<path d="M22.6577 72.2881C22.6577 71.4821 22.6577 23.7601 22.6577 -0.000102699" stroke="white" stroke-opacity="0.41" stroke-width="0.505512"/>
<path d="M36.812 72.2881C36.812 71.4821 36.812 23.7601 36.812 -0.000102699" stroke="white" stroke-opacity="0.41" stroke-width="0.505512"/>
<path d="M50.4609 72.2881C50.4609 71.4821 50.4609 23.7601 50.4609 -0.000102699" stroke="white" stroke-opacity="0.41" stroke-width="0.505512"/>
<path d="M64.1094 72.2881C64.1094 71.4821 64.1094 23.7601 64.1094 -0.000102699" stroke="white" stroke-opacity="0.41" stroke-width="0.505512"/>
<g clip-path="url(#clip4_24_1398)">
<g clip-path="url(#clip5_24_1398)">
<path d="M23.4639 26.5208H48.9413C50.5537 26.5208 51.8589 27.8077 51.8589 29.3975V38.9864C51.8589 40.5762 50.5537 41.8631 48.9413 41.8631H39.8048L41.0588 44.8912L35.5436 41.8631H23.4767C21.8644 41.8631 20.5592 40.5762 20.5592 38.9864V29.3975C20.5464 27.8203 21.8516 26.5208 23.4639 26.5208Z" fill="#9B5C8F"/>
<path d="M22.3411 29.1428C22.5193 28.9044 22.7864 28.7789 23.1427 28.7538C23.7916 28.7037 24.1606 29.0048 24.2496 29.6571C24.6441 32.2791 25.0767 34.4996 25.5347 36.3187L28.3212 31.0873C28.5756 30.6106 28.8937 30.3596 29.2754 30.3346C29.8353 30.2969 30.1788 30.6482 30.3188 31.3884C30.6368 33.0569 31.044 34.4745 31.5275 35.6789C31.8583 32.4924 32.4181 30.1966 33.207 28.7789C33.3978 28.4277 33.6778 28.252 34.0467 28.2269C34.3394 28.2019 34.6066 28.2897 34.8483 28.4779C35.0901 28.666 35.2173 28.9044 35.2428 29.1929C35.2555 29.4188 35.2173 29.6069 35.1155 29.7951C34.6193 30.6984 34.2122 32.2164 33.8813 34.324C33.5633 36.3688 33.4487 37.9621 33.5251 39.1037C33.5505 39.4174 33.4996 39.6934 33.3724 39.9317C33.2197 40.2077 32.9907 40.3583 32.6981 40.3833C32.3672 40.4084 32.0237 40.2579 31.6929 39.9192C30.5096 38.7274 29.5681 36.9459 28.881 34.5749C28.054 36.1807 27.4432 37.385 27.0488 38.1879C26.2981 39.6055 25.662 40.3332 25.1276 40.3708C24.784 40.3959 24.4914 40.1073 24.2369 39.5052C23.588 37.8617 22.8882 34.6878 22.1375 29.9833C22.0867 29.6571 22.163 29.3686 22.3411 29.1428ZM49.6839 31.1124C49.2259 30.322 48.5515 29.8453 47.6482 29.6571C47.4064 29.6069 47.1774 29.5818 46.9611 29.5818C45.7396 29.5818 44.7472 30.2091 43.9711 31.4636C43.3095 32.53 42.9786 33.7092 42.9786 35.0014C42.9786 35.9674 43.1822 36.7954 43.5894 37.4854C44.0474 38.2757 44.7218 38.7525 45.6251 38.9406C45.8669 38.9908 46.0959 39.0159 46.3122 39.0159C47.5464 39.0159 48.5388 38.3886 49.3022 37.1341C49.9638 36.0552 50.2947 34.876 50.2947 33.5838C50.3074 32.6053 50.0911 31.7898 49.6839 31.1124ZM48.0808 34.5874C47.9026 35.4154 47.5845 36.0301 47.1138 36.4441C46.7448 36.7703 46.4013 36.9083 46.0832 36.8456C45.7778 36.7828 45.5233 36.5194 45.3325 36.0301C45.1798 35.6412 45.1035 35.2523 45.1035 34.8885C45.1035 34.5749 45.1289 34.2612 45.1925 33.9727C45.307 33.4583 45.5233 32.9565 45.8669 32.4798C46.2868 31.8651 46.7321 31.6142 47.1901 31.702C47.4955 31.7647 47.75 32.0282 47.9408 32.5174C48.0935 32.9063 48.1698 33.2952 48.1698 33.6591C48.1698 33.9852 48.1444 34.2989 48.0808 34.5874ZM41.719 31.1124C41.261 30.322 40.5739 29.8453 39.6833 29.6571C39.4415 29.6069 39.2125 29.5818 38.9962 29.5818C37.7747 29.5818 36.7823 30.2091 36.0062 31.4636C35.3445 32.53 35.0137 33.7092 35.0137 35.0014C35.0137 35.9674 35.2173 36.7954 35.6245 37.4854C36.0825 38.2757 36.7569 38.7525 37.6602 38.9406C37.902 38.9908 38.131 39.0159 38.3473 39.0159C39.5815 39.0159 40.5739 38.3886 41.3373 37.1341C41.9989 36.0552 42.3297 34.876 42.3297 33.5838C42.3297 32.6053 42.1262 31.7898 41.719 31.1124ZM40.1031 34.5874C39.925 35.4154 39.6069 36.0301 39.1361 36.4441C38.7672 36.7703 38.4236 36.9083 38.1055 36.8456C37.8002 36.7828 37.5457 36.5194 37.3549 36.0301C37.2022 35.6412 37.1258 35.2523 37.1258 34.8885C37.1258 34.5749 37.1513 34.2612 37.2149 33.9727C37.3294 33.4583 37.5457 32.9565 37.8892 32.4798C38.3091 31.8651 38.7544 31.6142 39.2125 31.702C39.5178 31.7647 39.7723 32.0282 39.9632 32.5174C40.1159 32.9063 40.1922 33.2952 40.1922 33.6591C40.2049 33.9852 40.1667 34.2989 40.1031 34.5874Z" fill="white"/>
</g>
</g>
</g>
<defs>
<filter id="filter0_ii_24_1398" x="-0.0904728" y="-0.505512" width="73.2991" height="73.2992" filterUnits="userSpaceOnUse" color-interpolation-filters="sRGB">
<feFlood flood-opacity="0" result="BackgroundImageFix"/>
<feBlend mode="normal" in="SourceGraphic" in2="BackgroundImageFix" result="shape"/>
<feColorMatrix in="SourceAlpha" type="matrix" values="0 0 0 0 0 0 0 0 0 0 0 0 0 0 0 0 0 0 127 0" result="hardAlpha"/>
<feOffset dx="-0.505512" dy="-0.505512"/>
<feGaussianBlur stdDeviation="0.758268"/>
<feComposite in2="hardAlpha" operator="arithmetic" k2="-1" k3="1"/>
<feColorMatrix type="matrix" values="0 0 0 0 0 0 0 0 0 0 0 0 0 0 0 0 0 0 0.33 0"/>
<feBlend mode="normal" in2="shape" result="effect1_innerShadow_24_1398"/>
<feColorMatrix in="SourceAlpha" type="matrix" values="0 0 0 0 0 0 0 0 0 0 0 0 0 0 0 0 0 0 127 0" result="hardAlpha"/>
<feMorphology radius="1.01102" operator="erode" in="SourceAlpha" result="effect2_innerShadow_24_1398"/>
<feOffset dx="0.505512" dy="0.505512"/>
<feGaussianBlur stdDeviation="0.758268"/>
<feComposite in2="hardAlpha" operator="arithmetic" k2="-1" k3="1"/>
<feColorMatrix type="matrix" values="0 0 0 0 1 0 0 0 0 1 0 0 0 0 1 0 0 0 0.65 0"/>
<feBlend mode="normal" in2="effect1_innerShadow_24_1398" result="effect2_innerShadow_24_1398"/>
</filter>
<filter id="filter1_ii_24_1398" x="-0.0904728" y="-0.505512" width="73.2991" height="73.2992" filterUnits="userSpaceOnUse" color-interpolation-filters="sRGB">
<feFlood flood-opacity="0" result="BackgroundImageFix"/>
<feBlend mode="normal" in="SourceGraphic" in2="BackgroundImageFix" result="shape"/>
<feColorMatrix in="SourceAlpha" type="matrix" values="0 0 0 0 0 0 0 0 0 0 0 0 0 0 0 0 0 0 127 0" result="hardAlpha"/>
<feOffset dx="-0.505512" dy="-0.505512"/>
<feGaussianBlur stdDeviation="0.758268"/>
<feComposite in2="hardAlpha" operator="arithmetic" k2="-1" k3="1"/>
<feColorMatrix type="matrix" values="0 0 0 0 0 0 0 0 0 0 0 0 0 0 0 0 0 0 0.33 0"/>
<feBlend mode="normal" in2="shape" result="effect1_innerShadow_24_1398"/>
<feColorMatrix in="SourceAlpha" type="matrix" values="0 0 0 0 0 0 0 0 0 0 0 0 0 0 0 0 0 0 127 0" result="hardAlpha"/>
<feMorphology radius="1.01102" operator="erode" in="SourceAlpha" result="effect2_innerShadow_24_1398"/>
<feOffset dx="0.505512" dy="0.505512"/>
<feGaussianBlur stdDeviation="0.758268"/>
<feComposite in2="hardAlpha" operator="arithmetic" k2="-1" k3="1"/>
<feColorMatrix type="matrix" values="0 0 0 0 1 0 0 0 0 1 0 0 0 0 1 0 0 0 0.65 0"/>
<feBlend mode="normal" in2="effect1_innerShadow_24_1398" result="effect2_innerShadow_24_1398"/>
</filter>
<linearGradient id="paint0_linear_24_1398" x1="1.79076" y1="-28.5151" x2="36.5591" y2="72.2882" gradientUnits="userSpaceOnUse">
<stop stop-color="white"/>
<stop offset="1" stop-color="#DADADA"/>
</linearGradient>
<linearGradient id="paint1_linear_24_1398" x1="1.79076" y1="-28.5151" x2="36.5591" y2="72.2882" gradientUnits="userSpaceOnUse">
<stop stop-color="white"/>
<stop offset="1" stop-color="#DADADA"/>
</linearGradient>
<clipPath id="clip0_24_1398">
<rect x="0.415039" width="72.2882" height="72.2882" rx="36.1441" fill="white"/>
</clipPath>
<clipPath id="clip1_24_1398">
<rect width="31.2998" height="31.2998" fill="white" transform="translate(20.5591 20)"/>
</clipPath>
<clipPath id="clip2_24_1398">
<rect width="27.1949" height="31.2998" fill="white" transform="translate(23.1675 20)"/>
</clipPath>
<clipPath id="clip3_24_1398">
<rect x="0.415039" width="72.2882" height="72.2882" rx="36.1441" fill="white"/>
</clipPath>
<clipPath id="clip4_24_1398">
<rect width="31.2998" height="31.2998" fill="white" transform="translate(20.5591 20)"/>
</clipPath>
<clipPath id="clip5_24_1398">
<rect width="31.2998" height="18.4445" fill="white" transform="translate(20.5591 26.5208)"/>
</clipPath>
</defs>
</svg>
